# Blender 5.2.0 LTS
# www.blender.org
mtllib kriss stokc.mtl
o RenderMesh_8434176289_837f9a930e9da9bd
v 11.559600 -60.383850 7.686071
v 11.559600 -64.257065 -9.287486
v 13.352903 -60.022400 7.686071
v -14.338892 -60.245598 7.686071
v -14.338892 -64.257065 -6.986338
v -12.797720 -60.617775 7.686071
v 11.559600 -64.632957 -10.511043
v -11.559599 -64.257065 -9.287486
v -11.559599 -64.632957 -10.511043
v 11.559600 -64.257065 -9.287486
v -11.559599 -60.383850 7.686071
v 11.559600 -60.383850 7.686071
v -14.338892 -64.257065 -6.986338
v -11.559599 -60.383850 7.686071
v -12.797720 -60.617775 7.686071
v -11.559599 -64.257065 -9.287486
v 9.229330 -58.130814 3.335087
v -9.229330 -53.839905 15.868198
v -9.229330 -58.130814 3.335087
v 9.229330 -53.839905 15.868198
v -5.377675 -53.839905 19.402836
v 5.377675 -53.839905 19.402836
v 13.352903 -60.022400 7.686071
v 11.559600 -64.257065 -9.287486
v 14.338892 -64.257065 -6.986338
v 14.338892 -60.245598 7.686071
v 14.338892 -64.257065 -6.986338
v 11.559600 -64.257065 -9.287486
v 14.338892 -64.632957 -7.937480
v 11.559600 -64.632957 -10.511043
v -14.338892 -64.632957 -7.937480
v -11.559599 -64.257065 -9.287486
v -14.338892 -64.257065 -6.986338
v -11.559599 -64.632957 -10.511043
v 14.338892 -21.626699 7.686068
v -14.338892 -21.626698 17.018435
v -14.338892 -21.626699 7.686068
v 14.338892 -21.626698 17.018435
v -14.338892 -21.626698 17.432756
v 14.338892 -21.626698 17.432756
v -11.559599 -21.626698 20.006304
v 11.559600 -21.626698 20.006304
v 9.595089 64.632957 21.551310
v 9.595089 64.632957 -21.551321
v -9.595089 64.632957 -21.551321
v -9.595089 64.632957 21.551310
v -11.559599 54.188034 -0.388767
v -11.559599 53.159012 -6.421299
v -14.338892 52.460854 -4.758274
v -14.338892 53.489868 -0.068775
v -11.559599 54.188034 10.244671
v -14.338892 52.460854 14.253521
v -11.559599 53.159012 15.916592
v -14.338892 53.489868 9.924679
v 14.338892 52.460854 -4.758274
v 11.559600 54.188034 -0.388767
v 14.338892 53.489868 -0.068775
v 11.559600 53.159012 -6.421299
v -14.338892 52.460854 -4.758274
v -11.559599 53.159012 -6.421299
v -14.338892 51.222458 -6.983799
v -11.559599 51.222458 -9.284229
v 14.338892 53.489868 9.924679
v 11.559600 54.188034 10.244671
v 14.338892 52.460854 14.253521
v 11.559600 53.159012 15.916592
v 11.559600 51.222458 18.779507
v 14.338892 51.222458 16.479061
v 11.559600 53.159012 15.916592
v 14.338892 52.460854 14.253521
v -14.338892 53.489868 9.924679
v -11.559599 54.188034 10.178402
v -14.338892 53.489868 9.873165
v -11.559599 54.188034 10.244671
v -11.559599 54.188034 -0.236637
v -14.338892 53.489868 0.049496
v -14.338892 53.489868 -0.068775
v -11.559599 54.188034 -0.388767
v 11.559600 54.188034 10.244671
v 14.338892 53.489868 9.924679
v 11.559600 54.188034 10.178402
v 14.338892 53.489868 9.873165
v 11.559600 54.188034 -0.236637
v 14.338892 53.489868 0.049496
v 14.338892 53.489868 -0.068775
v 11.559600 54.188034 -0.388767
v -11.559599 54.188034 -0.388767
v 11.559600 54.188034 -0.388767
v -11.559599 53.159012 -6.421299
v 11.559600 53.159012 -6.421299
v -11.559599 53.159012 15.916592
v 11.559600 53.159012 15.916592
v -11.559599 54.188034 10.244671
v 11.559600 54.188034 10.244671
v -11.559599 54.188034 10.244671
v 11.559600 54.188034 10.244671
v -11.559599 54.188034 10.178402
v 11.559600 54.188034 10.178402
v -11.559599 54.188034 -0.236637
v 11.559600 54.188034 -0.236637
v -11.559599 54.188034 -0.388767
v 11.559600 54.188034 -0.388767
v -11.559599 51.222458 18.779507
v 11.559600 51.222458 18.779507
v -11.559599 53.159012 15.916592
v 11.559600 53.159012 15.916592
v -9.595089 64.632957 21.551310
v 7.257957 58.104897 21.551311
v 9.595089 64.632957 21.551310
v 9.595089 45.442780 21.551311
v 7.257957 45.442780 21.551311
v -7.257957 58.104897 21.551311
v -9.595089 45.442780 21.551311
v -7.257957 45.442780 21.551311
v 11.559600 -21.626698 20.006304
v -11.559599 49.112221 20.006298
v -11.559599 -21.626698 20.006304
v 11.559600 49.112221 20.006298
v -11.559599 51.222458 18.779507
v 11.559600 51.222458 18.779507
v 11.559600 49.112221 -10.511051
v -11.559599 -64.632957 -10.511043
v -11.559599 49.112221 -10.511051
v 11.559600 -64.632957 -10.511043
v 11.559600 51.222458 -9.284229
v -11.559599 51.222458 -9.284229
v 11.559600 53.159012 -6.421299
v -11.559599 53.159012 -6.421299
v 5.377675 -53.839905 19.402836
v -5.377675 -20.124660 19.402834
v -5.377675 -53.839905 19.402836
v 5.377675 -20.124660 19.402834
v -14.338892 -21.626698 17.018435
v -14.338892 49.112221 17.432751
v -14.338892 49.112221 17.018429
v -14.338892 -21.626698 17.432756
v -14.338892 51.222458 16.479061
v -14.338892 -21.626699 7.686068
v -11.559599 -21.626698 20.006304
v -14.338892 49.112221 17.432751
v -11.559599 49.112221 20.006298
v -11.559599 49.112221 20.006298
v -14.338892 51.222458 16.479061
v -11.559599 51.222458 18.779507
v -11.559599 53.159012 15.916592
v -14.338892 51.222458 16.479061
v -14.338892 52.460854 14.253521
v -14.338892 -64.257065 -6.986338
v -14.338892 -60.245598 7.686071
v -14.338892 49.112221 -6.986347
v -14.338892 49.112221 -7.937489
v -14.338892 -64.632957 -7.937480
v -14.338892 51.222458 -6.983799
v -11.559599 49.112221 -10.511051
v -11.559599 -64.632957 -10.511043
v -14.338892 49.112221 -7.937489
v -11.559599 51.222458 -9.284229
v -14.338892 51.222458 -6.983799
v -14.338892 51.222458 -6.133610
v -14.338892 52.460854 -4.758274
v -14.338892 51.222458 16.108715
v -14.338892 52.460854 14.253521
v -14.338892 52.460854 13.985790
v -14.338892 53.489868 9.924679
v -14.338892 53.489868 9.873165
v -14.338892 53.489868 0.049496
v -14.338892 52.460854 -4.143650
v -14.338892 53.489868 -0.068775
v 14.338892 49.112221 17.432751
v 14.338892 -21.626698 17.432756
v 14.338892 49.112221 17.018429
v 14.338892 51.222458 16.479061
v 14.338892 -21.626698 17.018435
v 14.338892 -21.626699 7.686068
v 11.559600 49.112221 20.006298
v 11.559600 -21.626698 20.006304
v 14.338892 49.112221 17.432751
v 11.559600 51.222458 18.779507
v 14.338892 51.222458 16.479061
v 14.338892 51.222458 16.108715
v 14.338892 52.460854 14.253521
v 14.338892 49.112221 -6.986347
v 14.338892 -64.257065 -6.986338
v 14.338892 -60.245598 7.686071
v 14.338892 49.112221 -7.937489
v 14.338892 -64.632957 -7.937480
v 14.338892 51.222458 -6.983799
v 11.559600 -64.632957 -10.511043
v 14.338892 49.112221 -7.937489
v 11.559600 49.112221 -10.511051
v 11.559600 49.112221 -10.511051
v 14.338892 51.222458 -6.983799
v 11.559600 51.222458 -9.284229
v 11.559600 53.159012 -6.421299
v 14.338892 51.222458 -6.983799
v 14.338892 52.460854 -4.758274
v 14.338892 51.222458 -6.133610
v 14.338892 52.460854 -4.758274
v 14.338892 52.460854 13.985790
v 14.338892 53.489868 9.924679
v 14.338892 53.489868 9.873165
v 14.338892 53.489868 0.049496
v 14.338892 52.460854 -4.143650
v 14.338892 53.489868 -0.068775
v -9.229330 -20.124662 3.335084
v -9.229330 -53.839905 15.868198
v -9.229330 -20.124660 15.868196
v -9.229330 -58.130814 3.335087
v -5.377675 -53.839905 19.402836
v -5.377675 -20.124660 19.402834
v 9.229330 -20.124660 15.868196
v 9.229330 -53.839905 15.868198
v 9.229330 -20.124662 3.335084
v 9.229330 -58.130814 3.335087
v 5.377675 -20.124660 19.402834
v 5.377675 -53.839905 19.402836
v -9.595089 45.442780 -10.572788
v -9.595089 64.632957 21.551310
v -9.595089 64.632957 -21.551321
v -9.595089 45.442780 21.551311
v 9.595089 45.442780 -10.572788
v 9.595089 64.632957 21.551310
v 9.595089 45.442780 21.551311
v 9.595089 64.632957 -21.551321
v 9.595089 64.632957 -21.551321
v -7.257957 58.104897 -17.816685
v -9.595089 64.632957 -21.551321
v -9.595089 45.442780 -10.572788
v -7.257957 45.442780 -10.572788
v 7.257957 58.104897 -17.816685
v 9.595089 45.442780 -10.572788
v 7.257957 45.442780 -10.572788
v -12.797720 -60.617775 7.686071
v -14.338892 -21.626699 7.686068
v -14.338892 -60.245598 7.686071
v 14.338892 -21.626699 7.686068
v -11.559599 -60.383850 7.686071
v 11.559600 -60.383850 7.686071
v 13.352903 -60.022400 7.686071
v 14.338892 -60.245598 7.686071
v 7.257957 45.442780 -10.572788
v 7.257957 58.104897 21.551311
v 7.257957 58.104897 -17.816685
v 7.257957 45.442780 21.551311
v -7.257957 45.442780 -10.572788
v -7.257957 58.104897 21.551311
v -7.257957 45.442780 21.551311
v -7.257957 58.104897 -17.816685
v -7.257957 45.442780 -10.572788
v -9.595089 45.442780 21.551311
v -9.595089 45.442780 -10.572788
v -7.257957 45.442780 21.551311
v 9.595089 45.442780 -10.572788
v 7.257957 45.442780 21.551311
v 7.257957 45.442780 -10.572788
v 9.595089 45.442780 21.551311
v 7.257957 58.104897 -17.816685
v -7.257957 58.104897 21.551311
v -7.257957 58.104897 -17.816685
v 7.257957 58.104897 21.551311
v 0.000000 -64.257065 -9.287486
v 0.000001 -62.320457 -0.800708
v -11.559599 -62.320457 -0.800708
v 0.000000 -60.383850 7.686071
v 11.559600 -62.320457 -0.800708
v -14.338892 13.742761 12.352248
v -14.338892 -42.941879 0.349865
v -14.338892 13.742762 0.349861
v -14.338892 -7.572423 -6.986342
v -14.338892 49.112221 5.016041
vn 0.0969 -0.9704 0.2214
vn -0.0609 -0.9621 0.2659
vn -0.0104 -0.9700 0.2430
vn -0.2266 -0.9395 0.2568
vn 0.0790 -0.9592 0.2713
vn -0.0233 -0.9697 0.2430
vn -0.1412 -0.9407 0.3085
vn 0.1155 -0.9572 0.2654
vn 0.1398 -0.9408 0.3088
vn -0.0609 -0.9621 0.2660
vn 0.1025 -0.9596 0.2619
vn -0.0759 -0.9697 0.2322
vn 0.0909 -0.9709 0.2215
vn 0.0484 -0.9517 0.3031
vn 0.0791 -0.9592 0.2713
vn -0.0232 -0.9698 0.2430
vn -0.0000 -0.9461 0.3239
vn -0.0000 -0.9864 0.1641
vn -0.0000 -1.0000 -0.0000
vn -0.0105 -0.9700 0.2430
vn -0.0610 -0.9621 0.2660
vn -0.2467 -0.9254 0.2877
vn -0.2133 -0.9424 0.2577
vn -0.2467 -0.9254 0.2878
vn -0.2797 -0.9062 0.3172
vn 0.2770 -0.9068 0.3178
vn -0.0000 1.0000 -0.0000
vn -0.1365 0.9866 -0.0889
vn -0.1904 0.9137 -0.3591
vn -0.3728 0.8662 -0.3326
vn -0.2706 0.9583 -0.0919
vn -0.1401 0.9856 0.0947
vn -0.3730 0.8639 0.3386
vn -0.1906 0.9114 0.3646
vn -0.2776 0.9557 0.0978
vn 0.3713 0.8669 -0.3326
vn 0.1390 0.9863 -0.0887
vn 0.2753 0.9570 -0.0914
vn 0.1897 0.9139 -0.3590
vn -0.3728 0.8662 -0.3327
vn -0.5432 0.5816 -0.6056
vn -0.2823 0.6593 -0.6969
vn 0.2722 0.9572 0.0985
vn 0.1374 0.9860 0.0950
vn 0.3738 0.8634 0.3388
vn 0.1910 0.9113 0.3647
vn 0.2823 0.6593 0.6969
vn 0.5432 0.5816 0.6056
vn 0.1910 0.9113 0.3648
vn 0.3739 0.8634 0.3389
vn -0.2776 0.9557 0.0977
vn -0.1227 0.9924 -0.0000
vn -0.2436 0.9699 -0.0000
vn -0.1400 0.9856 0.0946
vn -0.2706 0.9583 -0.0918
vn 0.1374 0.9860 0.0949
vn 0.1227 0.9924 -0.0000
vn 0.2436 0.9699 -0.0000
vn 0.2753 0.9570 -0.0913
vn 0.1389 0.9863 -0.0887
vn -0.1905 0.9115 0.3646
vn 0.1373 0.9860 0.0950
vn 0.1373 0.9860 0.0949
vn -0.2790 0.6608 0.6968
vn 0.2822 0.6593 0.6969
vn -0.1905 0.9114 0.3647
vn 0.1909 0.9113 0.3648
vn -0.0000 -0.0000 1.0000
vn 0.3648 -0.0000 0.9311
vn -0.3546 0.2371 0.9045
vn -0.3648 -0.0000 0.9311
vn 0.3545 0.2367 0.9046
vn -0.2790 0.6607 0.6968
vn 0.3546 0.2371 -0.9045
vn -0.3648 -0.0000 -0.9311
vn -0.3545 0.2366 -0.9046
vn 0.3648 -0.0000 -0.9311
vn 0.2790 0.6608 -0.6968
vn -0.2822 0.6593 -0.6970
vn 0.1897 0.9138 -0.3591
vn -0.1903 0.9137 -0.3591
vn 0.3628 -0.0000 0.9319
vn -0.3628 -0.0000 0.9319
vn -1.0000 -0.0000 -0.0000
vn -0.9122 0.1003 0.3972
vn -0.9164 -0.0000 0.4003
vn -0.3649 -0.0000 0.9311
vn -0.9122 0.1003 0.3973
vn -0.9163 -0.0000 0.4004
vn -0.3547 0.2371 0.9044
vn -0.3546 0.2371 0.9044
vn -0.5378 0.5856 0.6065
vn -0.2791 0.6607 0.6968
vn -0.5378 0.5857 0.6064
vn -0.2791 0.6608 0.6968
vn -0.3730 0.8638 0.3386
vn -0.9121 0.0999 -0.3975
vn -0.9164 -0.0000 -0.4003
vn -0.9164 -0.0000 -0.4004
vn -0.3546 0.2367 -0.9046
vn -0.3649 -0.0000 -0.9311
vn -0.9121 0.0999 -0.3976
vn -0.2822 0.6592 -0.6970
vn -0.5432 0.5815 -0.6056
vn 0.9121 0.0999 0.3975
vn 0.9164 -0.0000 0.4003
vn 1.0000 -0.0000 -0.0000
vn 0.9164 -0.0000 0.4004
vn 0.3546 0.2367 0.9046
vn 0.3649 -0.0000 0.9311
vn 0.9121 0.0999 0.3976
vn 0.5432 0.5815 0.6056
vn 0.9122 0.1003 -0.3972
vn 0.9164 -0.0000 -0.4003
vn 0.3649 -0.0000 -0.9311
vn 0.9122 0.1003 -0.3973
vn 0.9164 -0.0000 -0.4004
vn 0.3547 0.2371 -0.9044
vn 0.5378 0.5856 -0.6065
vn 0.2791 0.6607 -0.6968
vn 0.5378 0.5857 -0.6064
vn 0.2791 0.6608 -0.6968
vn 0.3713 0.8669 -0.3327
vn 1.0000 -0.0001 -0.0000
vn -0.9155 -0.0000 0.4024
vn -0.3628 -0.0000 0.9318
vn -0.3628 -0.0001 0.9318
vn 0.9155 -0.0000 0.4024
vn 0.3628 -0.0000 0.9318
vn 0.3628 0.0001 0.9318
vn -0.0000 -0.4966 -0.8680
vn -0.0619 -0.9711 0.2304
vn 0.0968 -0.9704 0.2214
vn -0.0000 -0.9507 0.3102
vt 0.898886 -0.940775
vt 0.898886 -0.928051
vt 0.897542 -0.940775
vt 0.918301 -0.940775
vt 0.918301 -0.929776
vt 0.917146 -0.940775
vt 0.898886 -0.927134
vt 0.880603 0.622875
vt 0.916218 -0.927134
vt 0.854123 0.663341
vt 0.871190 0.638139
vt 0.859764 0.591414
vt 0.860622 0.519749
vt 0.848861 0.535013
vt 0.916218 -0.940775
vt 0.916218 -0.928051
vt 0.892964 -0.972420
vt 0.907763 -0.982468
vt 0.907763 -0.972420
vt 0.892964 -0.982468
vt 0.904675 -0.985301
vt 0.896052 -0.985301
vt 0.896803 -0.929776
vt 0.896803 -0.940775
vt 0.896803 -0.929063
vt 0.918301 -0.929063
vt 0.992397 -0.858734
vt 0.976463 -0.907698
vt 0.992397 -0.907698
vt 0.976463 -0.858734
vt 0.981635 -0.777991
vt 0.981635 -0.729027
vt 0.980094 -0.773246
vt 0.971362 -0.863479
vt 0.897956 -0.687428
vt 0.897956 -0.966136
vt 0.941474 -0.966136
vt 0.941474 -0.687428
vt 0.817227 -0.190291
vt 0.817227 -0.229861
vt 0.823901 -0.220020
vt 0.823749 -0.188979
vt 0.904905 0.147819
vt 0.911591 0.154365
vt 0.904905 0.156692
vt 0.911428 0.147517
vt 0.904167 0.266478
vt 0.906180 0.259576
vt 0.904212 0.259271
vt 0.906180 0.268763
vt 0.749973 -0.201554
vt 0.757141 -0.195126
vt 0.750193 -0.185098
vt 0.757141 -0.172777
vt 0.876744 0.194153
vt 0.878713 0.193858
vt 0.876695 0.187474
vt 0.878713 0.185204
vt 0.742531 -0.201554
vt 0.749479 -0.189233
vt 0.742531 -0.179205
vt 0.749699 -0.172777
vt 0.990079 -0.919725
vt 0.986727 -0.789561
vt 0.986655 -0.790015
vt 0.993071 -0.961113
vt 0.986128 -0.788996
vt 0.986090 -0.789482
vt 0.986083 -0.789476
vt 0.986119 -0.788988
vt 0.947848 -0.919311
vt 0.948056 -0.919765
vt 0.971898 -0.789160
vt 0.971926 -0.790513
vt 0.974194 -0.789578
vt 0.974049 -0.791327
vt 0.974075 -0.791343
vt 0.954757 -0.919311
vt 0.976615 -0.915888
vt 0.981937 -0.801104
vt 0.983322 -0.786181
vt 0.983322 -0.801104
vt 0.897956 -0.537153
vt 0.897956 -0.686645
vt 0.911028 -0.537153
vt 0.911028 -0.686645
vt 0.976607 -0.908768
vt 0.961551 -0.908768
vt 0.981934 -0.779104
vt 0.976654 -0.779104
vt 0.981934 -0.785887
vt 0.976654 -0.785887
vt 0.976607 -0.915693
vt 0.961551 -0.915693
vt 0.911303 0.147331
vt 0.908194 0.118291
vt 0.910559 0.110029
vt 0.910559 0.303652
vt 0.734815 -0.077468
vt 0.720011 -0.186442
vt 0.734815 -0.201554
vt 0.691297 -0.201554
vt 0.691297 -0.186442
vt 0.720011 -0.092580
vt 0.691297 -0.077468
vt 0.691297 -0.092580
vt 0.845617 0.084819
vt 0.726772 0.373037
vt 0.799583 0.009395
vt 0.866405 0.053459
vt 0.882483 0.107586
vt 0.898302 0.258681
vt 0.885958 0.065986
vt 0.882687 0.390784
vt 0.868051 0.072467
vt 0.929444 0.462084
vt 0.894412 0.118367
vt 0.874333 0.118367
vt 0.816401 0.085403
vt 0.763974 0.085403
vt 0.989054 0.020502
vt 0.964664 0.238509
vt 0.964664 0.020502
vt 0.989054 0.238509
vt 0.821174 0.160761
vt 0.806636 -0.230644
vt 0.771281 0.353397
vt 0.806636 -0.688051
vt 0.804473 0.154503
vt 0.787091 0.241736
vt 0.802902 0.130075
vt 0.897681 0.010852
vt 0.889092 0.468259
vt 0.889092 0.010852
vt 0.897681 0.468259
vt 0.775618 0.233974
vt 0.770375 0.227217
vt 0.775445 0.228145
vt 0.770375 0.232770
vt 0.735089 0.228747
vt 0.742037 0.231134
vt 0.735089 0.234067
vt 0.742257 0.227217
vt 0.788134 0.288846
vt 0.773366 0.447616
vt 0.835619 0.037323
vt 0.770684 0.456235
vt 0.783486 0.438642
vt 0.780165 0.284438
vt 0.751192 0.317781
vt 0.749104 -0.966136
vt 0.751267 -0.216999
vt 0.968237 0.369560
vt 0.978278 0.292498
vt 0.976826 0.369575
vt 0.969689 0.292484
vt 0.815091 -0.966136
vt 0.806911 -0.965799
vt 0.753195 0.154503
vt 0.756314 -0.208991
vt 0.738533 0.428893
vt 0.803634 0.154503
vt 0.799426 0.156409
vt 0.798819 0.156409
vt 0.789610 0.227030
vt 0.789493 0.227030
vt 0.767216 0.227030
vt 0.757707 0.225446
vt 0.766948 -0.202338
vt 0.841811 0.197783
vt 0.841811 0.303979
vt 0.839493 0.068826
vt 0.842464 0.194615
vt 0.728635 0.063456
vt 0.724280 0.144599
vt 0.878793 0.059158
vt 0.888817 0.193655
vt 0.887382 0.353416
vt 0.898817 0.041387
vt 0.900853 0.368541
vt 0.898384 0.368481
vt 0.842717 0.194615
vt 0.698507 -0.208991
vt 0.812633 0.150024
vt 0.766938 0.328930
vt 0.747546 0.009542
vt 0.822597 0.261654
vt 0.748829 0.155491
vt 0.822821 0.022077
vt 0.941550 0.163980
vt 0.932960 0.563387
vt 0.932960 0.163980
vt 0.941550 0.563387
vt 0.864006 0.191029
vt 0.865589 0.184439
vt 0.864059 0.185344
vt 0.865589 0.189855
vt 0.861761 0.189537
vt 0.863857 0.187208
vt 0.861761 0.184348
vt 0.863924 0.191029
vt 0.811282 0.218677
vt 0.823345 0.025902
vt 0.844170 0.192756
vt 0.708324 -0.202337
vt 0.708440 -0.202337
vt 0.853705 0.191211
vt 0.856575 0.192756
vt 0.730986 -0.202337
vt 0.953951 0.001674
vt 0.925530 0.219681
vt 0.925530 0.001674
vt 0.953951 0.247427
vt 0.913675 0.219681
vt 0.913675 0.001674
vt 0.864951 0.044651
vt 0.864951 0.262658
vt 0.836529 0.044651
vt 0.836529 0.290404
vt 0.876805 0.044651
vt 0.876805 0.262658
vt 0.784709 0.265019
vt 0.741192 0.472738
vt 0.741192 0.194031
vt 0.784709 0.472738
vt 0.774546 0.139496
vt 0.818063 0.347215
vt 0.774546 0.347215
vt 0.818063 0.068508
vt 0.985316 0.410760
vt 0.947098 0.459390
vt 0.941798 0.410760
vt 0.941798 0.553717
vt 0.871942 -0.069714
vt 0.980016 0.459390
vt 0.985316 0.553717
vt 0.904859 -0.069714
vt 0.952044 -0.790142
vt 0.951121 -0.723570
vt 0.951121 -0.789507
vt 0.968293 -0.723570
vt 0.893492 -0.919450
vt 0.932965 -0.919450
vt 0.936027 -0.918833
vt 0.937711 -0.919214
vt 0.975581 0.169190
vt 0.946867 0.218636
vt 0.946867 0.158040
vt 0.975581 0.218636
vt 0.941748 -0.919295
vt 0.970462 -0.711577
vt 0.941748 -0.711577
vt 0.970462 -0.966136
vt 0.970898 -0.748144
vt 0.970494 -0.732327
vt 0.943988 -0.877851
vt 0.970898 -0.732327
vt 0.971451 -0.748224
vt 0.971046 -0.732361
vt 0.945562 -0.877931
vt 0.971451 -0.732361
vt 0.922932 0.654282
vt 0.890015 0.908840
vt 0.890015 0.654282
vt 0.922932 0.908840
vt 0.846525 0.617139
vt 0.838578 0.558384
vt 0.872569 0.571704
s 1
usemtl Material
f 1/1/1 2/2/2 3/3/3
f 4/4/4 5/5/5 6/6/6
f 7/7/7 8/8/8 9/9/9
f 8/8/8 7/7/7 10/10/10 261/11/11
f 10/10/10 262/12/12 261/11/11
f 11/13/13 262/12/12 264/14/14
f 13/5/15 14/15/13 15/6/16
f 14/15/13 13/5/15 16/16/8
f 17/17/17 18/18/18 19/19/17
f 18/18/18 17/17/17 20/20/18
f 18/18/18 20/20/18 21/21/19
f 21/21/19 20/20/18 22/22/19
f 23/3/20 24/2/21 25/23/22
f 23/3/20 25/23/22 26/24/23
f 27/23/24 28/2/21 29/25/25
f 28/2/21 30/7/7 29/25/25
f 31/26/26 32/16/8 33/5/15
f 32/16/8 31/26/26 34/9/9
f 35/27/19 36/28/19 37/29/19
f 36/28/19 35/27/19 38/30/19
f 38/30/19 39/31/19 36/28/19
f 39/31/19 38/30/19 40/32/19
f 39/31/19 40/32/19 41/33/19
f 41/33/19 40/32/19 42/34/19
f 43/35/27 44/36/27 45/37/27
f 45/37/27 46/38/27 43/35/27
f 47/39/28 48/40/29 49/41/30
f 49/41/30 50/42/31 47/39/28
f 51/43/32 52/44/33 53/45/34
f 52/44/33 51/43/32 54/46/35
f 55/47/36 56/48/37 57/49/38
f 56/48/37 55/47/36 58/50/39
f 59/51/40 60/52/29 61/53/41
f 62/54/42 61/53/41 60/52/29
f 63/55/43 64/56/44 65/57/45
f 64/56/44 66/58/46 65/57/45
f 67/59/47 68/60/48 69/61/49
f 70/62/50 69/61/49 68/60/48
f 71/63/51 72/64/52 73/65/53
f 72/64/52 71/63/51 74/66/54
f 75/67/52 73/65/53 72/64/52
f 73/65/53 75/67/52 76/68/53
f 76/68/53 75/67/52 77/69/55
f 78/70/28 77/69/55 75/67/52
f 79/71/56 80/72/43 81/73/57
f 82/74/58 81/73/57 80/72/43
f 83/75/57 81/73/57 82/74/58
f 82/74/58 84/76/58 83/75/57
f 85/77/59 83/75/57 84/76/58
f 83/75/57 85/77/59 86/78/60
f 87/79/28 88/80/60 89/81/29
f 90/82/39 89/81/29 88/80/60
f 91/83/61 92/84/49 93/85/54
f 94/86/62 93/85/54 92/84/49
f 95/87/54 96/88/63 97/89/52
f 98/90/57 97/89/52 96/88/63
f 97/89/52 98/90/57 99/91/52
f 100/92/57 99/91/52 98/90/57
f 99/91/52 100/92/57 101/93/28
f 102/94/60 101/93/28 100/92/57
f 103/95/64 104/96/65 105/97/66
f 106/98/67 105/97/66 104/96/65
f 107/99/68 108/100/68 109/101/68
f 110/102/68 109/101/68 108/100/68
f 110/102/68 108/100/68 111/103/68
f 108/100/68 107/99/68 112/104/68
f 113/105/68 112/104/68 107/99/68
f 112/104/68 113/105/68 114/106/68
f 115/107/69 116/108/70 117/109/71
f 116/108/70 115/107/69 118/110/72
f 118/110/72 119/111/73 116/108/70
f 119/111/73 118/110/72 120/112/65
f 121/113/74 122/114/75 123/115/76
f 122/114/75 121/113/74 124/116/77
f 123/115/76 125/117/78 121/113/74
f 125/117/78 123/115/76 126/118/79
f 125/117/78 126/118/79 127/119/80
f 128/120/81 127/119/80 126/118/79
f 129/121/82 130/122/83 131/123/83
f 130/122/83 129/121/82 132/124/82
f 133/125/84 134/126/85 135/127/84
f 134/126/85 133/125/84 136/128/86
f 134/126/85 137/129/84 135/127/84
f 135/127/84 266/130/84 138/131/84 133/125/84
f 139/132/87 140/133/88 136/134/89
f 140/133/88 139/132/87 141/135/90
f 142/136/91 143/137/92 140/138/88
f 143/137/92 142/136/91 144/139/93
f 145/140/34 146/141/94 144/142/95
f 146/141/94 145/140/34 147/143/96
f 138/131/84 267/144/84 148/145/84 149/146/84
f 150/147/84 269/148/84 268/149/84
f 138/131/84 266/130/84 268/149/84
f 151/150/97 148/145/84 269/148/84 150/147/84
f 148/145/84 151/150/97 152/151/98
f 150/147/84 153/152/84 151/150/97
f 152/153/99 154/154/100 155/155/101
f 154/154/100 152/153/99 156/156/102
f 156/156/102 157/157/103 154/154/100
f 157/157/103 156/156/102 158/158/104
f 153/152/84 150/147/84 159/159/84
f 159/159/84 160/160/84 153/152/84
f 150/147/84 270/161/84 135/127/84 161/162/84
f 150/147/84 161/162/84 159/159/84
f 135/127/84 137/129/84 161/162/84
f 137/129/84 162/163/84 161/162/84
f 163/164/84 161/162/84 162/163/84
f 159/159/84 161/162/84 163/164/84
f 162/163/84 164/165/84 163/164/84
f 165/166/84 163/164/84 164/165/84
f 166/167/84 163/164/84 165/166/84
f 159/159/84 163/164/84 167/168/84
f 163/164/84 166/167/84 167/168/84
f 160/160/84 159/159/84 167/168/84
f 167/168/84 166/167/84 168/169/84
f 168/169/84 160/160/84 167/168/84
f 169/170/105 170/171/106 171/172/107
f 171/172/107 172/173/107 169/170/105
f 173/174/107 171/172/107 170/171/106
f 174/175/107 171/172/107 173/174/107
f 170/176/108 175/177/109 176/178/110
f 175/177/109 170/176/108 177/179/111
f 177/179/111 178/180/47 175/177/109
f 178/180/47 177/179/111 179/181/112
f 172/173/107 171/172/107 180/182/107
f 180/182/107 181/183/107 172/173/107
f 171/172/107 174/175/107 182/184/107
f 182/184/107 180/182/107 171/172/107
f 183/185/107 174/175/107 184/186/107
f 183/185/107 182/184/107 174/175/107
f 182/184/107 183/185/107 185/187/113
f 186/188/114 185/187/113 183/185/107
f 185/187/113 187/189/107 182/184/107
f 188/190/115 189/191/116 186/192/117
f 189/191/116 188/190/115 190/193/118
f 191/194/118 192/195/119 189/196/116
f 192/195/119 191/194/118 193/197/120
f 194/198/80 195/199/121 193/200/122
f 195/199/121 194/198/80 196/201/123
f 197/202/107 182/184/107 187/189/107
f 180/182/107 182/184/107 197/202/107
f 187/189/107 198/203/107 197/202/107
f 197/202/107 199/204/107 180/182/107
f 181/183/107 180/182/107 199/204/107
f 200/205/124 181/183/107 199/204/107
f 199/204/107 201/206/107 200/205/124
f 199/204/107 202/207/107 201/206/107
f 203/208/107 197/202/107 198/203/107
f 199/204/107 197/202/107 203/208/107
f 202/207/107 199/204/107 203/208/107
f 198/203/107 204/209/107 203/208/107
f 202/207/107 203/208/107 204/209/107
f 205/210/84 206/211/125 207/212/125
f 206/211/125 205/210/84 208/213/84
f 209/214/126 207/212/125 206/211/125
f 207/212/125 209/214/126 210/215/127
f 211/216/128 212/217/128 213/218/107
f 214/219/107 213/218/107 212/217/128
f 215/220/129 212/217/128 211/216/128
f 212/217/128 215/220/129 216/221/130
f 217/222/84 218/223/84 219/224/84
f 218/223/84 217/222/84 220/225/84
f 221/226/107 222/227/107 223/228/107
f 222/227/107 221/226/107 224/229/107
f 225/230/131 226/231/131 227/232/131
f 228/233/131 227/232/131 226/231/131
f 228/233/131 226/231/131 229/234/131
f 226/231/131 225/230/131 230/235/131
f 225/230/131 231/236/131 230/235/131
f 232/237/131 230/235/131 231/236/131
f 233/238/68 234/239/68 235/240/68
f 234/239/68 233/238/68 236/241/68
f 237/242/68 236/241/68 233/238/68
f 236/241/68 237/242/68 238/243/68
f 236/241/68 238/243/68 239/244/68
f 236/241/68 239/244/68 240/245/68
f 241/246/84 242/247/84 243/248/84
f 242/247/84 241/246/84 244/249/84
f 245/250/107 246/251/107 247/252/107
f 246/251/107 245/250/107 248/253/107
f 249/254/19 250/255/19 251/256/19
f 250/255/19 249/254/19 252/257/19
f 253/258/19 254/259/19 255/260/19
f 254/259/19 253/258/19 256/261/19
f 257/262/19 258/263/19 259/264/19
f 258/263/19 257/262/19 260/265/19
f 264/14/14 265/266/132 12/267/133
f 264/14/14 262/12/12 265/266/132
f 262/12/12 10/10/10 265/266/132
f 261/11/11 263/268/134 8/8/8
f 261/11/11 262/12/12 263/268/134
f 262/12/12 11/13/13 263/268/134
f 268/149/84 270/161/84 150/147/84
f 268/149/84 266/130/84 270/161/84
f 266/130/84 135/127/84 270/161/84
f 268/149/84 267/144/84 138/131/84
f 268/149/84 269/148/84 267/144/84
f 269/148/84 148/145/84 267/144/84
