# Blender 5.2.0 LTS
# www.blender.org
mtllib mag.mtl
o magazine_
v -15.733243 -48.744133 4.430163
v -15.733244 -48.744129 38.202168
v -15.733244 -43.042786 4.430162
v -11.000689 -43.042782 43.587811
v -8.392685 -48.744133 -3.923378
v -8.392687 -43.042786 -3.923378
v -11.571891 -43.042786 6.303301
v -6.839334 -43.042782 41.714672
v -11.571926 62.900608 -38.257671
v -6.839368 62.900612 -2.846308
v -11.000688 -48.744129 43.587811
v -15.733246 -43.042782 38.202168
v -11.571892 -43.042782 36.329029
v -11.571927 62.900612 -8.231948
v -13.629886 -48.744129 42.989407
v -15.207405 -48.744129 41.194195
v -13.629887 -43.042782 42.989407
v -15.207407 -43.042782 41.194195
v -9.468534 -43.042782 41.116268
v -11.046052 -43.042782 39.321056
v -11.046084 62.900612 -5.239926
v -9.468567 62.900612 -3.444715
v -13.889109 -48.744133 -0.636358
v -13.889110 -43.042786 -0.636359
v -8.963890 -43.042786 3.335402
v -8.963924 62.900608 -41.225571
v -15.528338 -48.744133 2.548150
v -14.913628 -48.744133 0.859310
v -15.528339 -43.042786 2.548149
v -14.913629 -43.042786 0.859309
v -11.282112 -43.042786 4.654469
v -10.412779 -43.042786 3.665169
v -10.412814 62.900608 -40.895809
v -11.282146 62.900608 -39.906509
v -12.844820 -48.744133 -1.824756
v -12.844822 -43.042786 -1.824757
v -11.530522 -48.744133 -2.990659
v -10.046477 -48.744133 -3.690197
v -10.046479 -43.042786 -3.690198
v -11.530524 -43.042786 -2.990659
v -7.845019 74.849731 -31.153004
v -3.112462 74.849731 -11.782114
v -7.845020 74.849731 -14.728191
v -7.319180 74.849731 -13.091477
v -5.741662 74.849731 -12.109450
v -5.237020 74.849731 -32.776516
v -6.685908 74.849731 -32.596123
v -7.555241 74.849731 -32.054951
v -9.708472 68.875175 -34.705338
v -4.975915 68.875175 -5.799338
v -9.708473 68.875175 -11.480066
v -9.182633 68.875175 -9.165702
v -7.605114 68.875175 -7.777084
v -7.100471 68.875175 -38.670872
v -8.549362 68.875175 -36.745968
v -9.418695 68.875175 -35.980728
v 0.000016 -43.042782 -3.923378
v 0.000018 -48.744129 -3.923378
v 0.000014 -43.042778 43.587811
v 0.000016 -48.744125 43.587811
v 0.000014 -43.042778 41.714672
v 0.000016 -43.042782 3.335402
v 0.000016 -48.744125 38.202168
v 0.000016 -43.042782 -0.636358
v 0.000016 -43.042782 -1.824756
v 0.000018 -48.744129 -1.824755
v 0.000018 -48.744129 -0.636357
v 0.000018 -48.744129 0.859311
v 0.000018 -48.744129 2.548150
v -0.000014 62.900616 -2.846308
v -0.000015 68.875175 -5.799338
v -0.000014 68.875175 -38.670872
v 15.733276 -43.042778 4.430163
v 15.733277 -48.744125 4.430164
v 15.733276 -48.744122 38.202168
v 15.733274 -43.042774 38.202168
v 8.392721 -48.744125 -3.923376
v 8.392719 -43.042778 -3.923377
v 11.000717 -43.042774 43.587811
v 11.000718 -48.744122 43.587811
v 13.629916 -48.744122 42.989407
v 15.207438 -48.744122 41.194195
v 13.889142 -43.042778 -0.636357
v 12.844854 -43.042778 -1.824755
v 12.844856 -48.744125 -1.824754
v 13.889143 -48.744125 -0.636356
v 11.571920 -43.042774 36.329029
v 11.571921 -43.042778 6.303302
v 6.839364 -43.042774 41.714672
v 11.571900 62.900620 -8.231946
v 11.571901 62.900616 -38.257671
v 6.839342 62.900620 -2.846307
v 15.207436 -43.042774 41.194195
v 11.046081 -43.042774 39.321056
v 11.046058 62.900620 -5.239925
v 13.629915 -43.042774 42.989407
v 9.468562 -43.042774 41.116268
v 9.468540 62.900620 -3.444715
v 11.530559 -48.744125 -2.990657
v 10.046514 -48.744125 -3.690197
v 15.528373 -43.042778 2.548150
v 15.528374 -48.744125 2.548151
v 14.913661 -43.042778 0.859311
v 10.412811 -43.042778 3.665170
v 8.963923 -43.042778 3.335403
v 10.412789 62.900616 -40.895809
v 8.963901 62.900616 -41.225571
v 14.913662 -48.744125 0.859312
v 11.282145 -43.042778 4.654469
v 11.282121 62.900616 -39.906509
v 11.530557 -43.042778 -2.990658
v 10.046512 -43.042778 -3.690197
v 9.708443 68.875175 -11.480066
v 9.708444 68.875175 -34.705338
v 4.975886 68.875175 -5.799338
v 7.605085 68.875175 -7.777083
v 9.182604 68.875175 -9.165702
v 9.418667 68.875175 -35.980728
v 8.549334 68.875175 -36.745968
v 7.100444 68.875175 -38.670872
v 7.844988 74.849731 -14.728191
v 7.844989 74.849731 -31.153004
v 3.112430 74.849731 -11.782114
v 5.741629 74.849731 -12.109450
v 7.319149 74.849731 -13.091477
v 7.555210 74.849731 -32.054951
v 6.685878 74.849731 -32.596123
v 5.236989 74.849731 -32.776516
v -0.000012 62.900612 -41.225571
v 0.000018 -48.744129 4.430164
v -14.567945 -47.465210 4.512003
v -14.559258 -47.479805 38.069878
v -14.567946 -44.321712 4.512002
v -10.884440 -44.307110 42.251812
v -8.320770 -47.465210 -2.597271
v -8.320771 -44.321712 -2.597272
v -10.449105 -44.369213 6.397729
v -6.756844 -44.607826 40.743732
v -9.989628 62.575184 -38.028206
v -6.648423 62.047623 -4.466832
v -10.884439 -47.479805 42.251812
v -14.559258 -44.307110 38.069878
v -10.503223 -44.420876 36.178139
v -9.997789 62.501732 -8.413078
v -13.047054 -47.550362 41.750092
v -14.118374 -47.550362 40.530930
v -13.047055 -44.236549 41.750092
v -14.118375 -44.236549 40.530930
v -9.116950 -44.652107 40.309475
v -10.294718 -44.589413 38.793991
v -9.705154 62.236156 -6.034156
v -8.771569 62.017612 -4.856126
v -13.014267 -47.465210 0.243473
v -13.014268 -44.321712 0.243472
v -8.830490 -44.111519 4.830617
v -8.742723 62.767681 -39.403522
v -14.376703 -47.493633 2.893960
v -13.884424 -47.493633 1.541490
v -14.376704 -44.293289 2.893959
v -13.884425 -44.293289 1.541489
v -10.260530 -44.374844 5.178858
v -9.796460 -44.254536 4.865442
v -9.681106 62.645203 -39.270290
v -9.922413 62.585930 -38.953869
v -12.071682 -47.465210 -0.829189
v -12.071683 -44.321712 -0.829190
v -10.931067 -47.493633 -1.819428
v -9.742601 -47.493633 -2.379638
v -9.742602 -44.293289 -2.379639
v -10.931068 -44.293289 -1.819429
v -6.364735 74.128510 -30.945627
v -2.989945 73.524086 -13.056524
v -6.363393 74.134361 -14.943248
v -6.231187 73.837898 -14.010237
v -5.292961 73.626953 -13.392017
v -5.113594 73.533302 -31.492706
v -6.239197 73.626190 -31.313387
v -6.476862 73.827248 -31.133316
v -8.231807 68.145508 -34.494164
v -4.554442 67.867928 -7.267773
v -8.230874 68.148949 -11.694620
v -8.037099 67.864799 -9.990704
v -6.868670 67.768585 -8.991174
v -6.457173 67.924225 -37.270638
v -7.653990 67.807381 -35.640297
v -8.272796 67.866280 -35.154579
v 0.000017 -44.346794 -2.619364
v 0.000018 -47.440117 -2.619363
v 0.000015 -44.346790 42.283798
v 0.000016 -47.440113 42.283798
v 0.000015 -44.578922 40.694294
v 0.000016 -44.063160 4.871546
v 0.000016 -46.899975 38.202168
v 0.000017 -44.886936 -0.636358
v 0.000017 -44.886936 -1.824756
v 0.000017 -46.899979 -1.824755
v 0.000017 -46.899979 -0.636357
v 0.000017 -46.899979 0.859311
v 0.000017 -46.899979 2.548150
v -0.000013 62.134193 -4.523655
v -0.000015 68.058037 -7.452574
v -0.000014 68.150124 -36.975227
v 14.567979 -44.321705 4.512003
v 14.567980 -47.465202 4.512004
v 14.559288 -47.479797 38.069878
v 14.559287 -44.307102 38.069878
v 8.320805 -47.465202 -2.597270
v 8.320804 -44.321705 -2.597271
v 10.884469 -44.307102 42.251812
v 10.884470 -47.479797 42.251812
v 13.047085 -47.550354 41.750092
v 14.118404 -47.550354 40.530930
v 13.014301 -44.321705 0.243473
v 12.071715 -44.321705 -0.829186
v 12.071716 -47.465202 -0.829188
v 13.014302 -47.465202 0.243474
v 10.503252 -44.420868 36.178139
v 10.449138 -44.369205 6.397730
v 6.756875 -44.607826 40.743732
v 9.997763 62.501740 -8.413078
v 9.989603 62.575191 -38.028206
v 6.648397 62.047623 -4.466831
v 14.118403 -44.236542 40.530930
v 10.294746 -44.589405 38.793991
v 9.705128 62.236164 -6.034155
v 13.047084 -44.236542 41.750092
v 9.116979 -44.652100 40.309475
v 8.771543 62.017620 -4.856125
v 10.931102 -47.493626 -1.819427
v 9.742636 -47.493626 -2.379637
v 14.376737 -44.293282 2.893960
v 14.376738 -47.493626 2.893960
v 13.884459 -44.293282 1.541490
v 9.796493 -44.254528 4.865443
v 8.830523 -44.111511 4.830618
v 9.681081 62.645210 -39.270290
v 8.742700 62.767689 -39.403522
v 13.884459 -47.493626 1.541491
v 10.260563 -44.374836 5.178859
v 9.922388 62.585938 -38.953869
v 10.931101 -44.293282 -1.819428
v 9.742635 -44.293282 -2.379638
v 8.230844 68.148949 -11.694620
v 8.231778 68.145508 -34.494164
v 4.554414 67.867928 -7.267773
v 6.868641 67.768585 -8.991174
v 8.037068 67.864799 -9.990704
v 8.272769 67.866280 -35.154579
v 7.653964 67.807381 -35.640297
v 6.457147 67.924225 -37.270638
v 6.363362 74.134361 -14.943248
v 6.364705 74.128510 -30.945627
v 2.989913 73.524086 -13.056524
v 5.292930 73.626953 -13.392017
v 6.231156 73.837898 -14.010237
v 6.476832 73.827248 -31.133316
v 6.239166 73.626190 -31.313387
v 5.113564 73.533302 -31.492706
v -0.000012 62.895157 -39.381424
v 0.000017 -46.899979 4.430163
vn -0.9985 -0.0000 -0.0542
vn -0.9962 -0.0000 0.0869
vn -0.0700 -0.0000 -0.9975
vn -0.0000 -0.0000 -1.0000
vn -0.1117 -0.0000 0.9937
vn -0.0000 -0.0000 1.0000
vn -0.0000 -1.0000 -0.0000
vn -0.7898 -0.0000 -0.6133
vn -0.7088 -0.0000 -0.7054
vn -0.0000 1.0000 -0.0000
vn -0.9975 -0.0271 -0.0647
vn -0.9931 0.0455 0.1082
vn -0.9975 0.0273 0.0649
vn -0.9930 -0.0456 -0.1085
vn -0.0000 0.3877 0.9218
vn -0.1060 0.3855 0.9166
vn -0.1007 0.3857 0.9171
vn -0.9049 -0.0000 0.4256
vn -0.9187 0.1532 0.3641
vn -0.8622 0.1964 0.4670
vn -0.5202 -0.0000 0.8541
vn -0.5226 0.3306 0.7859
vn -0.4615 0.3440 0.8177
vn -0.9741 -0.0000 -0.2259
vn -0.4615 -0.3440 -0.8177
vn -0.1009 -0.3857 -0.9171
vn -0.1060 -0.3855 -0.9166
vn -0.5226 -0.3306 -0.7859
vn -0.8902 -0.0000 -0.4556
vn -0.8622 -0.1964 -0.4670
vn -0.9187 -0.1532 -0.3641
vn -0.5525 -0.0000 -0.8335
vn -0.2875 -0.0000 -0.9578
vn -0.2876 -0.0000 -0.9578
vn -0.9266 0.3581 0.1150
vn -0.9293 0.3537 0.1065
vn -0.9283 0.3562 -0.1065
vn -0.9249 0.3618 -0.1171
vn -0.2186 0.5260 0.8219
vn -0.2080 0.5626 0.8001
vn -0.4367 0.6096 0.6615
vn -0.4754 0.5768 0.6643
vn -0.7360 0.5213 0.4319
vn -0.7514 0.5122 0.4161
vn -0.7514 0.5111 -0.4174
vn -0.7368 0.5190 -0.4334
vn -0.3238 0.5000 -0.8032
vn -0.5514 0.5547 -0.6231
vn -0.5088 0.5930 -0.6241
vn -0.3108 0.5338 -0.7864
vn -0.9347 0.3444 0.0881
vn -0.9348 0.3449 -0.0852
vn -0.2961 0.6754 0.6754
vn -0.3872 0.6404 0.6633
vn -0.7440 0.5142 0.4267
vn -0.7434 0.5140 -0.4279
vn -0.4645 0.6233 -0.6290
vn -0.4449 0.6535 -0.6124
vn -0.0000 0.4431 0.8965
vn -0.0000 0.3932 -0.9195
vn -0.0000 -0.3877 -0.9218
vn 0.9985 -0.0000 -0.0542
vn 0.9962 -0.0000 0.0869
vn 0.0700 -0.0000 -0.9975
vn 0.1117 -0.0000 0.9937
vn 0.7897 -0.0000 -0.6134
vn 0.7091 -0.0000 -0.7051
vn 0.9975 -0.0273 -0.0649
vn 0.9930 -0.0456 -0.1085
vn 0.9975 0.0271 0.0647
vn 0.9931 0.0455 0.1082
vn 0.1007 0.3857 0.9171
vn 0.1060 0.3855 0.9166
vn 0.9049 -0.0000 0.4256
vn 0.9187 0.1532 0.3641
vn 0.8622 0.1964 0.4670
vn 0.5202 -0.0000 0.8541
vn 0.5226 0.3306 0.7859
vn 0.4615 0.3440 0.8177
vn 0.9741 -0.0000 -0.2259
vn 0.4615 -0.3440 -0.8177
vn 0.5226 -0.3306 -0.7859
vn 0.1060 -0.3855 -0.9166
vn 0.1007 -0.3857 -0.9171
vn 0.8902 -0.0000 -0.4556
vn 0.8622 -0.1964 -0.4670
vn 0.9187 -0.1532 -0.3641
vn 0.5525 -0.0000 -0.8335
vn 0.2876 -0.0000 -0.9578
vn 0.2875 -0.0000 -0.9578
vn 0.9266 0.3581 0.1150
vn 0.9249 0.3617 -0.1170
vn 0.9283 0.3562 -0.1065
vn 0.9292 0.3538 0.1065
vn 0.2186 0.5260 0.8219
vn 0.4754 0.5768 0.6643
vn 0.4367 0.6096 0.6615
vn 0.2080 0.5626 0.8001
vn 0.7514 0.5122 0.4161
vn 0.7360 0.5213 0.4319
vn 0.7368 0.5190 -0.4334
vn 0.7514 0.5111 -0.4174
vn 0.3238 0.5000 -0.8032
vn 0.3108 0.5338 -0.7864
vn 0.5088 0.5930 -0.6241
vn 0.5514 0.5547 -0.6231
vn 0.9348 0.3449 -0.0852
vn 0.9347 0.3444 0.0881
vn 0.3872 0.6404 0.6633
vn 0.2961 0.6754 0.6754
vn 0.7440 0.5142 0.4267
vn 0.7434 0.5140 -0.4279
vn 0.4645 0.6233 -0.6290
vn 0.4449 0.6535 -0.6124
vn 0.9960 -0.0000 -0.0894
vn 0.9960 -0.0000 -0.0891
vn 0.9983 -0.0000 0.0590
vn 0.0777 -0.0000 0.9970
vn 0.1164 -0.0000 -0.9932
vn -0.0358 0.9990 0.0274
vn -0.0409 0.9985 0.0360
vn -0.0280 0.9973 0.0681
vn 0.7050 -0.0000 0.7092
vn 0.7931 -0.0000 0.6091
vn -0.0372 -0.9993 -0.0047
vn -0.0464 -0.9989 -0.0069
vn -0.0142 -0.9999 -0.0061
vn -0.0162 -0.9999 -0.0041
vn -0.0056 -0.9862 0.1653
vn -0.0000 -0.9856 0.1690
vn -0.0317 -0.9887 0.1462
vn 0.9992 -0.0198 -0.0359
vn 0.9973 -0.0323 -0.0655
vn 0.9989 0.0145 0.0453
vn 0.9968 0.0270 0.0748
vn 0.0860 -0.3889 -0.9173
vn -0.0000 -0.3902 -0.9207
vn 0.0839 -0.3889 -0.9174
vn 0.9031 -0.0000 -0.4294
vn -0.0727 -0.9972 0.0167
vn -0.0718 -0.9973 0.0140
vn 0.9483 -0.1270 -0.2908
vn 0.8800 -0.1879 -0.4361
vn 0.5243 -0.0000 -0.8515
vn -0.0493 -0.9923 0.1133
vn -0.0717 -0.9954 0.0638
vn 0.5358 -0.3305 -0.7770
vn 0.4569 -0.3480 -0.8186
vn -0.0401 0.9684 -0.2463
vn -0.0295 0.9976 -0.0627
vn -0.0445 0.9978 -0.0494
vn -0.0000 0.9971 0.0762
vn -0.0000 0.9993 0.0384
vn 0.9729 -0.0000 0.2310
vn 0.0069 -0.9998 0.0163
vn -0.0022 -0.9970 0.0774
vn 0.0431 -0.9986 -0.0303
vn 0.0406 -0.9985 -0.0354
vn 0.0114 0.3821 0.9240
vn 0.0095 0.3822 0.9240
vn 0.2690 0.3673 0.8904
vn 0.3729 0.3536 0.8579
vn 0.8927 -0.0000 0.4507
vn 0.0119 -0.9994 -0.0333
vn 0.0132 -0.9993 -0.0347
vn 0.8084 0.2226 0.5449
vn 0.9160 0.1506 0.3719
vn 0.5472 -0.0000 0.8370
vn 0.2940 -0.0000 0.9558
vn 0.2939 -0.0000 0.9558
vn -0.0445 -0.9978 -0.0494
vn -0.0295 -0.9976 -0.0626
vn -0.0401 -0.9684 -0.2463
vn -0.0000 -0.9991 0.0424
vn -0.0000 -0.9891 -0.1469
vn -0.0000 0.9892 -0.1468
vn -0.0000 0.9647 -0.2634
vn -0.0000 0.9999 -0.0117
vn -0.0441 0.9990 -0.0075
vn -0.0000 1.0000 -0.0086
vn -0.0000 1.0000 -0.0050
vn -0.0425 0.9991 -0.0057
vn -0.0410 0.9991 -0.0089
vn 0.9496 -0.3125 0.0267
vn 0.9336 -0.3463 -0.0922
vn 0.9291 -0.3543 -0.1063
vn 0.9430 -0.3293 0.0490
vn 0.4115 -0.6152 -0.6725
vn 0.2006 -0.5602 -0.8037
vn 0.2261 -0.5290 -0.8179
vn 0.4500 -0.5845 -0.6752
vn 0.7455 -0.5175 -0.4200
vn 0.6938 -0.5453 -0.4704
vn 0.7728 -0.5096 0.3783
vn 0.7408 -0.5344 0.4069
vn 0.4912 -0.6106 0.6212
vn 0.5508 -0.5897 0.5906
vn 0.3842 -0.5390 0.7495
vn 0.3141 -0.5452 0.7773
vn 0.9544 -0.2984 0.0011
vn 0.9425 -0.3288 -0.0592
vn 0.3673 -0.6400 -0.6749
vn 0.2994 -0.6768 -0.6725
vn 0.7750 -0.4977 -0.3894
vn 0.8775 -0.4230 0.2259
vn 0.4740 -0.6447 0.5997
vn 0.4157 -0.6228 0.6628
vn -0.0000 -0.4372 -0.8993
vn -0.0000 -0.3978 0.9175
vn -0.0000 -0.9940 0.1098
vn -0.0000 0.3824 0.9240
vn -0.0000 -0.9647 -0.2634
vn -0.0000 1.0000 -0.0051
vn -0.0397 0.9992 -0.0048
vn -0.9960 -0.0000 -0.0894
vn -0.9983 -0.0000 0.0590
vn -0.9960 -0.0000 -0.0891
vn -0.0777 -0.0000 0.9970
vn -0.1164 -0.0000 -0.9932
vn 0.0358 0.9990 0.0274
vn 0.0281 0.9973 0.0679
vn 0.0409 0.9985 0.0360
vn -0.7051 -0.0000 0.7091
vn -0.7932 -0.0000 0.6090
vn -0.7050 -0.0000 0.7092
vn 0.0372 -0.9993 -0.0047
vn 0.0162 -0.9999 -0.0041
vn 0.0142 -0.9999 -0.0061
vn 0.0464 -0.9989 -0.0069
vn 0.0055 -0.9862 0.1653
vn 0.0317 -0.9887 0.1462
vn -0.9992 -0.0198 -0.0359
vn -0.9968 0.0270 0.0748
vn -0.9989 0.0145 0.0453
vn -0.9973 -0.0323 -0.0655
vn -0.0860 -0.3889 -0.9173
vn -0.0835 -0.3889 -0.9175
vn -0.9031 -0.0000 -0.4294
vn 0.0718 -0.9973 0.0140
vn 0.0727 -0.9972 0.0167
vn -0.8800 -0.1879 -0.4361
vn -0.9483 -0.1270 -0.2908
vn -0.5243 -0.0000 -0.8515
vn 0.0717 -0.9954 0.0638
vn 0.0493 -0.9923 0.1133
vn -0.4569 -0.3480 -0.8186
vn -0.5358 -0.3305 -0.7770
vn 0.0401 0.9684 -0.2463
vn 0.0445 0.9978 -0.0494
vn 0.0295 0.9976 -0.0627
vn -0.9730 -0.0000 0.2310
vn -0.9729 -0.0000 0.2310
vn -0.0069 -0.9998 0.0163
vn -0.0406 -0.9985 -0.0354
vn -0.0431 -0.9986 -0.0303
vn 0.0022 -0.9970 0.0774
vn -0.0111 0.3821 0.9241
vn -0.3729 0.3536 0.8579
vn -0.2690 0.3673 0.8904
vn -0.0095 0.3822 0.9240
vn -0.8927 -0.0000 0.4507
vn -0.0132 -0.9993 -0.0347
vn -0.0119 -0.9994 -0.0333
vn -0.9160 0.1506 0.3719
vn -0.8084 0.2226 0.5449
vn -0.5472 -0.0000 0.8370
vn -0.2939 -0.0000 0.9558
vn 0.0445 -0.9978 -0.0494
vn 0.0401 -0.9684 -0.2463
vn 0.0295 -0.9976 -0.0626
vn 0.0441 0.9990 -0.0075
vn 0.0410 0.9991 -0.0089
vn 0.0425 0.9991 -0.0057
vn -0.9496 -0.3125 0.0267
vn -0.9430 -0.3293 0.0490
vn -0.9290 -0.3543 -0.1064
vn -0.9336 -0.3463 -0.0922
vn -0.4115 -0.6152 -0.6725
vn -0.4500 -0.5845 -0.6752
vn -0.2261 -0.5290 -0.8179
vn -0.2006 -0.5602 -0.8037
vn -0.7455 -0.5175 -0.4200
vn -0.6938 -0.5453 -0.4704
vn -0.7728 -0.5096 0.3783
vn -0.7408 -0.5344 0.4069
vn -0.4912 -0.6106 0.6212
vn -0.3141 -0.5452 0.7773
vn -0.3842 -0.5390 0.7495
vn -0.5509 -0.5896 0.5907
vn -0.9544 -0.2984 0.0011
vn -0.9425 -0.3289 -0.0594
vn -0.3673 -0.6400 -0.6749
vn -0.2994 -0.6768 -0.6725
vn -0.7750 -0.4977 -0.3894
vn -0.8775 -0.4229 0.2259
vn -0.4157 -0.6228 0.6628
vn -0.4740 -0.6447 0.5997
vn 0.0397 0.9992 -0.0048
vn 0.5172 0.8537 -0.0602
vn 0.4900 0.8714 -0.0210
vn 0.4921 0.8703 -0.0218
vn 0.5159 0.8546 -0.0592
vn 0.9709 -0.0490 0.2343
vn 0.2581 0.7542 -0.6037
vn 0.1076 0.7161 -0.6897
vn 0.2434 0.7515 -0.6132
vn 0.4857 0.8309 -0.2715
vn 0.4771 0.8271 -0.2972
vn 0.5501 0.8184 0.1662
vn 0.5352 0.8148 0.2230
vn 0.1216 0.7189 0.6844
vn 0.2965 0.7564 0.5830
vn 0.2670 0.7522 0.6024
vn 0.9628 0.0057 -0.2702
vn -0.0270 0.8615 -0.5071
vn -0.0000 0.8618 -0.5073
vn -0.0000 0.8772 0.4801
vn -0.0251 0.8769 0.4800
vn -0.4900 0.8714 -0.0210
vn -0.5173 0.8537 -0.0602
vn -0.5159 0.8546 -0.0592
vn -0.4921 0.8702 -0.0218
vn -0.1076 0.7161 -0.6897
vn -0.2581 0.7542 -0.6037
vn -0.2434 0.7515 -0.6132
vn -0.9709 -0.0490 0.2343
vn -0.4857 0.8309 -0.2715
vn -0.4771 0.8271 -0.2972
vn -0.5501 0.8184 0.1662
vn -0.5352 0.8148 0.2230
vn -0.9628 0.0057 -0.2702
vn -0.2966 0.7564 0.5830
vn -0.1216 0.7189 0.6844
vn -0.2670 0.7522 0.6024
vn 0.0270 0.8615 -0.5071
vn 0.0251 0.8769 0.4800
vt 0.691132 0.682698
vt 0.724616 0.684630
vt 0.724499 0.700537
vt 0.691017 0.698605
vt 0.678206 0.697874
vt 0.668737 0.697335
vt 0.668851 0.681429
vt 0.678321 0.681967
vt 0.733188 0.685133
vt 0.745607 0.685886
vt 0.745484 0.701803
vt 0.733066 0.701047
vt 0.855355 0.665487
vt 0.852965 0.663245
vt 0.851106 0.656520
vt 0.858275 0.663245
vt 0.685445 0.698285
vt 0.683779 0.698190
vt 0.683893 0.682284
vt 0.685560 0.682379
vt 0.750062 0.512295
vt 0.783581 0.512295
vt 0.781722 0.525520
vt 0.751922 0.525520
vt 0.788923 0.562285
vt 0.787065 0.562284
vt 0.787066 0.540556
vt 0.788925 0.527336
vt 0.789733 0.166204
vt 0.822127 0.178202
vt 0.762402 0.450509
vt 0.734821 0.420456
vt 0.837110 0.197134
vt 0.776443 0.473950
vt 0.769956 0.460399
vt 0.830449 0.185573
vt 0.727524 0.700715
vt 0.727642 0.684805
vt 0.784692 0.527191
vt 0.786550 0.513967
vt 0.765219 0.452229
vt 0.825232 0.179633
vt 0.730041 0.700865
vt 0.730160 0.684953
vt 0.786473 0.532204
vt 0.788332 0.518981
vt 0.767494 0.454887
vt 0.827739 0.181628
vt 0.837073 0.547671
vt 0.838261 0.543815
vt 0.839828 0.540882
vt 0.836263 0.552450
vt 0.866996 0.634164
vt 0.869386 0.647615
vt 0.689252 0.682591
vt 0.689137 0.698496
vt 0.749303 0.529202
vt 0.748976 0.533806
vt 0.745035 0.518157
vt 0.746519 0.514901
vt 0.731719 0.417431
vt 0.730063 0.416353
vt 0.783920 0.161340
vt 0.785728 0.163864
vt 0.687440 0.682487
vt 0.687325 0.698393
vt 0.750285 0.526441
vt 0.748195 0.512947
vt 0.733225 0.418697
vt 0.787721 0.165353
vt 0.682013 0.682177
vt 0.681899 0.698083
vt 0.680201 0.682074
vt 0.680086 0.697980
vt 0.742005 0.530367
vt 0.742699 0.525651
vt 0.743856 0.521475
vt 0.741774 0.535621
vt 0.745036 0.562287
vt 0.743857 0.562288
vt 0.848305 0.528957
vt 0.849236 0.534198
vt 0.849763 0.537166
vt 0.835736 0.556902
vt 0.835364 0.562093
vt 0.850427 0.540901
vt 0.851176 0.545119
vt 0.835493 0.567184
vt 0.757911 0.465981
vt 0.734310 0.442456
vt 0.765634 0.481384
vt 0.762291 0.473049
vt 0.760325 0.468510
vt 0.732972 0.440938
vt 0.731542 0.440828
vt 0.727847 0.439641
vt 0.752719 0.481161
vt 0.734923 0.463332
vt 0.757496 0.492629
vt 0.755982 0.487343
vt 0.754465 0.483117
vt 0.733976 0.462157
vt 0.732870 0.462237
vt 0.731533 0.462860
vt 0.772495 0.491171
vt 0.717367 0.425784
vt 0.721074 0.407949
vt 0.748977 0.562286
vt 0.775323 0.146976
vt 0.741775 0.562288
vt 0.836121 0.572175
vt 0.852011 0.549819
vt 0.800125 0.689344
vt 0.799996 0.705267
vt 0.766477 0.703111
vt 0.766605 0.687188
vt 0.812822 0.706100
vt 0.812952 0.690175
vt 0.822433 0.690792
vt 0.822302 0.706717
vt 0.758028 0.686650
vt 0.757904 0.702568
vt 0.882886 0.626753
vt 0.880496 0.631983
vt 0.882886 0.611808
vt 0.883683 0.620028
vt 0.805574 0.705629
vt 0.805705 0.689704
vt 0.807373 0.689812
vt 0.807242 0.705737
vt 0.750065 0.612275
vt 0.751923 0.599051
vt 0.781718 0.599049
vt 0.783576 0.612272
vt 0.788920 0.597235
vt 0.787063 0.584013
vt 0.762305 0.121052
vt 0.710463 0.380359
vt 0.687635 0.327435
vt 0.742711 0.047473
vt 0.729503 0.020000
vt 0.736349 0.030674
vt 0.680870 0.313754
vt 0.673493 0.304484
vt 0.763449 0.702917
vt 0.763577 0.686996
vt 0.784687 0.597378
vt 0.786545 0.610601
vt 0.685722 0.321368
vt 0.740746 0.040556
vt 0.760931 0.702758
vt 0.761057 0.686838
vt 0.786468 0.592366
vt 0.788326 0.605589
vt 0.683784 0.317091
vt 0.738899 0.035387
vt 0.860364 0.514902
vt 0.862209 0.515947
vt 0.856781 0.517031
vt 0.858555 0.515264
vt 0.802008 0.689465
vt 0.801878 0.705389
vt 0.749305 0.595369
vt 0.746521 0.609670
vt 0.745037 0.606415
vt 0.748978 0.590766
vt 0.712919 0.386486
vt 0.764992 0.129728
vt 0.766660 0.132929
vt 0.714066 0.390021
vt 0.803822 0.689582
vt 0.803692 0.705507
vt 0.750287 0.598131
vt 0.748197 0.611623
vt 0.711790 0.383413
vt 0.763554 0.125569
vt 0.809256 0.689935
vt 0.809125 0.705859
vt 0.811070 0.690053
vt 0.810939 0.705978
vt 0.742007 0.594207
vt 0.741776 0.588953
vt 0.743858 0.603097
vt 0.742702 0.598922
vt 0.863791 0.517431
vt 0.865489 0.519710
vt 0.866859 0.523055
vt 0.703898 0.392396
vt 0.685044 0.346035
vt 0.680708 0.338755
vt 0.676488 0.334641
vt 0.683077 0.341353
vt 0.705024 0.394933
vt 0.707938 0.406870
vt 0.705759 0.398388
vt 0.697132 0.401124
vt 0.682887 0.366210
vt 0.679373 0.361238
vt 0.676993 0.360113
vt 0.681425 0.362887
vt 0.697960 0.402871
vt 0.698477 0.405622
vt 0.698939 0.409209
vt 0.670093 0.322608
vt 0.867901 0.527464
vt 0.715344 0.533740
vt 0.714985 0.543317
vt 0.686008 0.570317
vt 0.683382 0.563498
vt 0.683583 0.607278
vt 0.679757 0.609339
vt 0.681338 0.586763
vt 0.682818 0.587150
vt 0.733820 0.580226
vt 0.728019 0.583349
vt 0.718957 0.547477
vt 0.720702 0.541306
vt 0.716851 0.542777
vt 0.717817 0.543603
vt 0.683237 0.581071
vt 0.681226 0.579971
vt 0.680951 0.575825
vt 0.683677 0.578388
vt 0.718361 0.512295
vt 0.676347 0.551198
vt 0.727664 0.549245
vt 0.736616 0.578721
vt 0.857529 0.307889
vt 0.925314 0.054093
vt 0.940837 0.133015
vt 0.880783 0.374310
vt 0.853206 0.294457
vt 0.845930 0.284463
vt 0.914728 0.024981
vt 0.920828 0.037679
vt 0.717692 0.537070
vt 0.722652 0.526183
vt 0.856514 0.301913
vt 0.924106 0.047386
vt 0.718861 0.538719
vt 0.724576 0.537379
vt 0.855443 0.297708
vt 0.922892 0.042438
vt 0.682772 0.585061
vt 0.682879 0.583268
vt 0.722093 0.586540
vt 0.684999 0.572990
vt 0.682538 0.568023
vt 0.672635 0.561370
vt 0.674521 0.559956
vt 0.681822 0.571656
vt 0.944518 0.146836
vt 0.882816 0.381811
vt 0.882108 0.378089
vt 0.943028 0.142780
vt 0.684272 0.575539
vt 0.675413 0.558095
vt 0.881742 0.376643
vt 0.941904 0.137773
vt 0.681480 0.582687
vt 0.681509 0.584604
vt 0.677402 0.610607
vt 0.678641 0.609939
vt 0.684416 0.606830
vt 0.685286 0.606361
vt 0.687649 0.605088
vt 0.686380 0.605772
vt 0.872910 0.387234
vt 0.853718 0.326276
vt 0.851196 0.317670
vt 0.847958 0.311693
vt 0.852812 0.321032
vt 0.873815 0.387706
vt 0.874445 0.390488
vt 0.876324 0.397347
vt 0.863007 0.398947
vt 0.849287 0.348012
vt 0.847556 0.342118
vt 0.844344 0.339593
vt 0.848847 0.344678
vt 0.865341 0.396605
vt 0.865957 0.401906
vt 0.865682 0.397458
vt 0.842268 0.304370
vt 0.888754 0.403914
vt 0.884101 0.421623
vt 0.668737 0.615273
vt 0.952159 0.162595
vt 0.689090 0.604313
vt 0.722748 0.642622
vt 0.689141 0.648172
vt 0.690686 0.639108
vt 0.721158 0.634095
vt 0.685513 0.626778
vt 0.684188 0.628676
vt 0.726734 0.630025
vt 0.724304 0.626102
vt 0.723752 0.630887
vt 0.722963 0.632658
vt 0.686700 0.631993
vt 0.687461 0.634029
vt 0.685264 0.639244
vt 0.684975 0.635105
vt 0.728365 0.659417
vt 0.684216 0.666913
vt 0.732163 0.615414
vt 0.930531 0.459773
vt 0.901149 0.416680
vt 0.965527 0.184386
vt 0.996890 0.203017
vt 0.936362 0.467466
vt 1.003782 0.210277
vt 1.009884 0.222965
vt 0.941890 0.484113
vt 0.724493 0.637088
vt 0.730531 0.642053
vt 0.999523 0.204300
vt 0.932859 0.460754
vt 0.725363 0.634341
vt 0.730850 0.629649
vt 1.001560 0.206118
vt 0.934602 0.462403
vt 0.686079 0.630323
vt 0.685744 0.628769
vt 0.687762 0.644844
vt 0.689398 0.637672
vt 0.686621 0.642212
vt 0.681371 0.660671
vt 0.679433 0.661317
vt 0.959752 0.178533
vt 0.961567 0.181354
vt 0.899476 0.414223
vt 0.898004 0.413409
vt 0.688388 0.636059
vt 0.682444 0.661473
vt 0.963597 0.182908
vt 0.900075 0.414784
vt 0.684855 0.632317
vt 0.684630 0.630506
vt 0.899066 0.441651
vt 0.925402 0.475416
vt 0.929064 0.479678
vt 0.932045 0.486640
vt 0.927449 0.476317
vt 0.898640 0.439354
vt 0.897510 0.438475
vt 0.894629 0.435429
vt 0.897989 0.471726
vt 0.919316 0.493708
vt 0.921826 0.496636
vt 0.923625 0.504537
vt 0.920578 0.493915
vt 0.898101 0.464761
vt 0.897711 0.464093
vt 0.896119 0.464657
vt 0.936199 0.499799
vt 0.752109 0.487209
vt 0.733771 0.469171
vt 0.765607 0.489022
vt 0.757148 0.497779
vt 0.754459 0.492097
vt 0.753308 0.488628
vt 0.733330 0.468426
vt 0.732816 0.468765
vt 0.730718 0.468179
vt 0.725797 0.444700
vt 0.771506 0.497114
vt 0.716039 0.432171
vt 0.695887 0.406812
vt 0.681313 0.370671
vt 0.678647 0.367303
vt 0.675569 0.363491
vt 0.674135 0.338450
vt 0.680285 0.368426
vt 0.696334 0.407527
vt 0.707376 0.414375
vt 0.697691 0.413814
vt 0.696481 0.408954
vt 0.668737 0.327947
s 1
usemtl magazine_.001
f 1/1/1 2/2/2 12/3/2 3/4/1
f 6/5/3 57/6/4 58/7/4 5/8/3
f 11/9/5 60/10/6 59/11/6 4/12/5
f 15/13/7 16/14/7 2/15/7 11/16/7
f 24/17/8 36/18/9 35/19/9 23/20/8
f 3/21/10 12/22/10 13/23/10 7/24/10
f 59/25/10 61/26/10 8/27/10 4/28/10
f 7/29/11 13/30/12 14/31/13 9/32/14
f 61/33/15 70/34/15 10/35/16 8/36/17
f 18/37/18 12/3/2 2/2/2 16/38/18
f 20/39/10 13/23/10 12/22/10 18/40/10
f 21/41/19 14/31/13 13/30/12 20/42/20
f 17/43/21 18/37/18 16/38/18 15/44/21
f 4/12/5 17/43/21 15/44/21 11/9/5
f 19/45/10 20/39/10 18/40/10 17/46/10
f 8/27/10 19/45/10 17/46/10 4/28/10
f 22/47/22 21/41/19 20/42/20 19/48/23
f 10/35/16 22/47/22 19/48/23 8/36/17
f 37/49/7 38/50/7 5/51/7 35/52/7
f 63/53/7 60/54/7 11/16/7 2/15/7
f 27/55/24 1/1/1 3/4/1 29/56/24
f 32/57/10 25/58/10 24/59/10 30/60/10
f 33/61/25 26/62/26 25/63/27 32/64/28
f 28/65/29 27/55/24 29/56/24 30/66/29
f 23/20/8 28/65/29 30/66/29 24/17/8
f 31/67/10 32/57/10 30/60/10 29/68/10
f 7/24/10 31/67/10 29/68/10 3/21/10
f 34/69/30 33/61/25 32/64/28 31/70/31
f 9/32/14 34/69/30 31/70/31 7/29/11
f 37/71/32 35/19/9 36/18/9 40/72/32
f 38/73/33 37/71/32 40/72/32 39/74/34
f 5/8/3 38/73/33 39/74/34 6/5/3
f 39/75/10 40/76/10 36/77/10 6/78/10
f 36/77/10 24/59/10 64/79/10 65/80/10
f 5/51/7 58/81/7 66/82/7 35/52/7
f 35/52/7 66/82/7 67/83/7 23/84/7
f 28/85/7 68/86/7 69/87/7 27/88/7
f 14/31/35 51/89/36 49/90/37 9/32/38
f 10/35/39 50/91/40 53/92/41 22/47/42
f 14/31/35 21/41/43 52/93/44 51/89/36
f 21/41/43 22/47/42 53/92/41 52/93/44
f 9/32/38 49/90/37 56/94/45 34/69/46
f 26/62/47 33/61/48 55/95/49 54/96/50
f 34/69/46 56/94/45 55/95/49 33/61/48
f 51/89/36 43/97/51 41/98/52 49/90/37
f 50/91/40 42/99/53 45/100/54 53/92/41
f 44/101/55 43/97/51 51/89/36 52/93/44
f 45/100/54 44/101/55 52/93/44 53/92/41
f 49/90/37 41/98/52 48/102/56 56/94/45
f 47/103/57 46/104/58 54/96/50 55/95/49
f 56/94/45 48/102/56 47/103/57 55/95/49
f 50/91/40 10/35/39 70/34/59 71/105/59
f 54/96/50 72/106/60 129/107/60 26/62/47
f 64/79/10 24/59/10 25/58/10 62/108/10
f 25/63/27 26/62/26 129/107/61 62/109/61
f 6/78/10 36/77/10 65/80/10 57/110/10
f 2/15/7 1/111/7 130/112/7 63/53/7
f 68/86/7 28/85/7 23/84/7 67/83/7
f 130/112/7 1/111/7 27/88/7 69/87/7
f 74/113/62 73/114/62 76/115/63 75/116/63
f 78/117/64 77/118/64 58/119/4 57/120/4
f 80/121/65 79/122/65 59/11/6 60/10/6
f 81/123/7 80/124/7 75/125/7 82/126/7
f 83/127/66 86/128/66 85/129/67 84/130/67
f 73/131/10 88/132/10 87/133/10 76/134/10
f 59/25/10 79/135/10 89/136/10 61/26/10
f 88/137/68 91/138/69 90/139/70 87/140/71
f 61/141/15 89/142/72 92/143/73 70/144/15
f 93/145/74 82/146/74 75/116/63 76/115/63
f 94/147/10 93/148/10 76/134/10 87/133/10
f 95/149/75 94/150/76 87/140/71 90/139/70
f 96/151/77 81/152/77 82/146/74 93/145/74
f 79/122/65 80/121/65 81/152/77 96/151/77
f 97/153/10 96/154/10 93/148/10 94/147/10
f 89/136/10 79/135/10 96/154/10 97/153/10
f 98/155/78 97/156/79 94/150/76 95/149/75
f 92/143/73 89/142/72 97/156/79 98/155/78
f 99/157/7 85/158/7 77/159/7 100/160/7
f 63/53/7 75/125/7 80/124/7 60/54/7
f 102/161/80 101/162/80 73/114/62 74/113/62
f 104/163/10 103/164/10 83/165/10 105/166/10
f 106/167/81 104/168/82 105/169/83 107/170/84
f 108/171/85 103/172/85 101/162/80 102/161/80
f 86/128/66 83/127/66 103/172/85 108/171/85
f 109/173/10 101/174/10 103/164/10 104/163/10
f 88/132/10 73/131/10 101/174/10 109/173/10
f 110/175/86 109/176/87 104/168/82 106/167/81
f 91/138/69 88/137/68 109/176/87 110/175/86
f 99/177/88 111/178/88 84/130/67 85/129/67
f 100/179/89 112/180/90 111/178/88 99/177/88
f 77/118/64 78/117/64 112/180/90 100/179/89
f 112/181/10 78/182/10 84/183/10 111/184/10
f 84/183/10 65/80/10 64/79/10 83/165/10
f 77/159/7 85/158/7 66/82/7 58/81/7
f 85/158/7 86/185/7 67/83/7 66/82/7
f 108/186/7 102/187/7 69/87/7 68/86/7
f 90/139/91 91/138/92 114/188/93 113/189/94
f 92/143/95 98/155/96 116/190/97 115/191/98
f 90/139/91 113/189/94 117/192/99 95/149/100
f 95/149/100 117/192/99 116/190/97 98/155/96
f 91/138/92 110/175/101 118/193/102 114/188/93
f 107/170/103 120/194/104 119/195/105 106/167/106
f 110/175/101 106/167/106 119/195/105 118/193/102
f 113/189/94 114/188/93 122/196/107 121/197/108
f 115/191/98 116/190/97 124/198/109 123/199/110
f 125/200/111 117/192/99 113/189/94 121/197/108
f 124/198/109 116/190/97 117/192/99 125/200/111
f 114/188/93 118/193/102 126/201/112 122/196/107
f 127/202/113 119/195/105 120/194/104 128/203/114
f 118/193/102 119/195/105 127/202/113 126/201/112
f 115/191/98 71/204/59 70/144/59 92/143/95
f 120/194/104 107/170/103 129/107/60 72/106/60
f 64/79/10 62/108/10 105/166/10 83/165/10
f 105/169/83 62/109/61 129/107/61 107/170/84
f 78/182/10 57/110/10 65/80/10 84/183/10
f 75/125/7 63/53/7 130/112/7 74/205/7
f 68/86/7 67/83/7 86/185/7 108/186/7
f 130/112/7 69/87/7 102/187/7 74/205/7
f 142/206/115 132/207/116 131/208/117 133/209/117
f 188/210/6 187/211/6 136/212/118 135/213/118
f 189/214/4 190/215/4 141/216/119 134/217/119
f 132/207/120 146/218/121 145/219/121 141/216/122
f 165/220/123 166/221/123 154/222/124 153/223/124
f 143/224/125 142/206/126 133/209/127 137/225/128
f 138/226/129 191/227/130 189/214/130 134/217/131
f 144/228/132 143/229/133 137/230/134 139/231/135
f 140/232/136 200/233/137 191/234/137 138/235/138
f 132/207/116 142/206/115 148/236/139 146/218/139
f 142/206/126 143/224/125 150/237/140 148/236/141
f 143/229/133 144/228/132 151/238/142 150/239/143
f 146/218/139 148/236/139 147/240/144 145/219/144
f 145/219/144 147/240/144 134/217/119 141/216/119
f 148/236/141 150/237/140 149/241/145 147/240/146
f 147/240/146 149/241/145 138/226/129 134/217/131
f 150/239/143 151/238/142 152/242/147 149/243/148
f 149/243/148 152/242/147 140/232/136 138/235/138
f 135/213/149 168/244/150 167/245/150 165/220/151
f 141/216/122 190/215/152 193/246/153 132/207/120
f 133/209/117 131/208/117 157/247/154 159/248/154
f 154/222/155 155/249/156 162/250/157 160/251/158
f 155/252/159 156/253/160 163/254/161 162/255/162
f 159/248/154 157/247/154 158/256/163 160/251/163
f 160/251/163 158/256/163 153/223/124 154/222/124
f 160/251/158 162/250/157 161/257/164 159/248/165
f 159/248/165 161/257/164 137/225/128 133/209/127
f 162/255/162 163/254/161 164/258/166 161/259/167
f 161/259/167 164/258/166 139/231/135 137/230/134
f 166/221/123 165/220/123 167/245/168 170/260/168
f 170/260/168 167/245/168 168/244/169 169/261/170
f 169/261/170 168/244/169 135/213/118 136/212/118
f 166/221/171 170/260/172 169/261/172 136/212/173
f 194/262/174 154/222/155 166/221/171 195/263/175
f 196/264/176 188/210/177 135/213/149 165/220/151
f 197/265/178 196/264/176 165/220/151 153/223/179
f 199/266/180 198/267/181 158/256/182 157/247/183
f 179/268/184 181/269/185 144/228/186 139/231/187
f 183/270/188 180/271/189 140/232/190 152/242/191
f 182/272/192 151/238/193 144/228/186 181/269/185
f 183/270/188 152/242/191 151/238/193 182/272/192
f 186/273/194 179/268/184 139/231/187 164/258/195
f 185/274/196 163/254/197 156/253/198 184/275/199
f 185/274/196 186/273/194 164/258/195 163/254/197
f 171/276/200 173/277/201 181/269/185 179/268/184
f 175/278/202 172/279/203 180/271/189 183/270/188
f 181/269/185 173/277/201 174/280/204 182/272/192
f 182/272/192 174/280/204 175/278/202 183/270/188
f 178/281/205 171/276/200 179/268/184 186/273/194
f 184/275/199 176/282/206 177/283/207 185/274/196
f 177/283/207 178/281/205 186/273/194 185/274/196
f 200/233/208 140/232/190 180/271/189 201/284/208
f 259/285/209 202/286/209 184/275/199 156/253/198
f 155/249/156 154/222/155 194/262/174 192/287/210
f 259/285/211 156/253/160 155/252/159 192/288/211
f 195/263/175 166/221/171 136/212/173 187/211/212
f 260/289/213 131/208/214 132/207/120 193/246/153
f 153/223/179 158/256/182 198/267/181 197/265/178
f 157/247/183 131/208/214 260/289/213 199/266/180
f 206/290/215 203/291/216 204/292/216 205/293/217
f 188/210/6 207/294/218 208/295/218 187/211/6
f 189/214/4 209/296/219 210/297/219 190/215/4
f 205/293/220 210/297/221 211/298/222 212/299/222
f 215/300/223 216/301/224 213/302/224 214/303/225
f 217/304/226 218/305/227 203/291/228 206/290/229
f 219/306/230 209/296/231 189/214/130 191/227/130
f 220/307/232 221/308/233 218/309/234 217/310/235
f 222/311/236 219/312/237 191/313/137 200/314/137
f 205/293/217 212/299/238 223/315/238 206/290/215
f 206/290/229 223/315/239 224/316/240 217/304/226
f 217/310/235 224/317/241 225/318/242 220/307/232
f 212/299/238 211/298/243 226/319/243 223/315/238
f 211/298/243 210/297/219 209/296/219 226/319/243
f 223/315/239 226/319/244 227/320/245 224/316/240
f 226/319/244 209/296/231 219/306/230 227/320/245
f 224/317/241 227/321/246 228/322/247 225/318/242
f 227/321/246 219/312/237 222/311/236 228/322/247
f 207/294/248 215/300/249 229/323/250 230/324/250
f 210/297/221 205/293/220 193/246/153 190/215/152
f 203/291/216 231/325/251 232/326/252 204/292/216
f 213/302/253 233/327/254 234/328/255 235/329/256
f 235/330/257 234/331/258 236/332/259 237/333/260
f 231/325/251 233/327/261 238/334/261 232/326/252
f 233/327/261 213/302/224 216/301/224 238/334/261
f 233/327/254 231/325/262 239/335/263 234/328/255
f 231/325/262 203/291/228 218/305/227 239/335/263
f 234/331/258 239/336/264 240/337/265 236/332/259
f 239/336/264 218/309/234 221/308/233 240/337/265
f 214/303/225 241/338/266 229/323/266 215/300/223
f 241/338/266 242/339/267 230/324/267 229/323/266
f 242/339/267 208/295/218 207/294/218 230/324/267
f 214/303/268 208/295/269 242/339/270 241/338/270
f 194/262/174 195/263/175 214/303/268 213/302/253
f 196/264/176 215/300/249 207/294/248 188/210/177
f 197/265/178 216/301/271 215/300/249 196/264/176
f 199/266/180 232/326/272 238/334/273 198/267/181
f 244/340/274 221/308/275 220/307/276 243/341/277
f 246/342/278 228/322/279 222/311/280 245/343/281
f 247/344/282 243/341/277 220/307/276 225/318/283
f 246/342/278 247/344/282 225/318/283 228/322/279
f 248/345/284 240/337/285 221/308/275 244/340/274
f 249/346/286 250/347/287 237/333/288 236/332/289
f 249/346/286 236/332/289 240/337/285 248/345/284
f 252/348/290 244/340/274 243/341/277 251/349/291
f 254/350/292 246/342/278 245/343/281 253/351/293
f 243/341/277 247/344/282 255/352/294 251/349/291
f 247/344/282 246/342/278 254/350/292 255/352/294
f 256/353/295 248/345/284 244/340/274 252/348/290
f 250/347/287 249/346/286 257/354/296 258/355/297
f 257/354/296 249/346/286 248/345/284 256/353/295
f 200/314/208 201/356/208 245/343/281 222/311/280
f 259/285/209 237/333/288 250/347/287 202/286/209
f 235/329/256 192/287/210 194/262/174 213/302/253
f 259/285/211 192/288/211 235/330/257 237/333/260
f 195/263/175 187/211/212 208/295/269 214/303/268
f 260/289/213 193/246/153 205/293/220 204/292/298
f 216/301/271 197/265/178 198/267/181 238/334/273
f 232/326/272 199/266/180 260/289/213 204/292/298
f 41/98/299 43/97/300 173/357/301 171/358/302
f 42/99/303 50/91/303 180/359/303 172/360/303
f 45/100/304 42/99/305 172/360/305 175/361/306
f 43/97/300 44/101/307 174/362/308 173/357/301
f 44/101/307 45/100/304 175/361/306 174/362/308
f 48/102/309 41/98/299 171/358/302 178/363/310
f 46/104/311 47/103/312 177/364/313 176/365/311
f 54/96/314 46/104/314 176/365/314 184/366/314
f 47/103/312 48/102/309 178/363/310 177/364/313
f 50/91/315 71/105/316 201/367/316 180/359/315
f 72/106/317 54/96/318 184/366/318 202/368/317
f 121/197/319 122/196/320 252/369/321 251/370/322
f 123/199/323 124/198/324 254/371/325 253/372/323
f 115/191/326 123/199/326 253/372/326 245/373/326
f 125/200/327 121/197/319 251/370/322 255/374/328
f 124/198/324 125/200/327 255/374/328 254/371/325
f 122/196/320 126/201/329 256/375/330 252/369/321
f 128/203/331 120/194/331 250/376/331 258/377/331
f 127/202/332 128/203/333 258/377/333 257/378/334
f 126/201/329 127/202/332 257/378/334 256/375/330
f 71/204/316 115/191/335 245/373/335 201/379/316
f 120/194/336 72/106/317 202/368/317 250/376/336
