# Blender 5.2.0 LTS
# www.blender.org
mtllib stock.mtl
o stock_
v -2.354625 97.018402 -130.026550
v -6.779655 95.472351 -130.026535
v -10.386972 92.566696 -130.026535
v -12.741484 88.651932 -130.026550
v -13.559197 84.200226 -130.026550
v -2.354379 97.018158 32.273502
v -6.779408 95.472092 32.273510
v -10.386725 92.566452 32.273510
v -12.741238 88.651688 32.273502
v -13.558951 84.199982 32.273495
v -0.000114 97.018417 -130.026550
v 0.000138 97.018158 32.273502
v -13.559195 69.991402 -130.026581
v -13.558951 69.991158 32.273476
v -2.354413 97.018204 10.270658
v -6.779443 95.472137 10.270665
v -10.386760 92.566498 10.270665
v -12.741272 88.651733 10.270658
v -13.558986 84.200012 10.270651
v 0.000103 97.018204 10.270658
v -13.558988 69.991196 7.284972
v -4.474837 -4.052626 21.817623
v -4.474853 -3.926955 10.270497
v -2.354474 97.018265 -30.427832
v -6.779504 95.472198 -30.427828
v -10.386821 92.566559 -30.427824
v -12.741332 88.651794 -30.427828
v -13.559046 84.200089 -30.427834
v -13.559038 69.991249 -27.442196
v 0.000040 97.018265 -30.427835
v -2.354492 97.018295 -41.831135
v -6.779521 95.472229 -41.831131
v -10.386838 92.566574 -41.831131
v -12.741350 88.651810 -41.831158
v -13.559064 84.200104 -41.831165
v -13.559061 69.991272 -41.831184
v 0.000023 97.018295 -41.831139
v -4.474889 -4.469598 -15.182868
v -4.474899 -4.469576 -20.409966
v -2.354601 97.018387 -114.151375
v -6.779631 95.472321 -114.151375
v -10.386948 92.566681 -114.151375
v -12.741459 88.651917 -114.151398
v -13.559173 84.200211 -114.151405
v -13.559170 69.991379 -114.151428
v -0.000089 97.018387 -114.151375
v -3.137597 -4.795050 21.817616
v -3.137612 -4.669391 10.270490
v -3.137648 -5.212022 -15.182872
v -3.137657 -5.212011 -20.409969
v -4.929044 -0.350439 22.340420
v -4.929064 -0.289744 7.285645
v -4.929093 -0.687867 -12.960265
v -4.929107 -0.746530 -21.481041
v -2.559754 2.615346 10.267353
v -10.877035 70.293564 7.281821
v -10.571310 67.787201 -29.917856
v -2.247140 -0.385499 -12.963416
v -13.253263 67.484833 -29.914705
v -13.482599 69.364647 -29.553141
v -10.800646 69.667015 -29.556320
v -13.246337 67.447159 10.270629
v -10.564384 67.749527 10.267447
v -13.480823 69.355186 9.524207
v -10.798870 69.657555 9.521052
v -5.241706 2.312974 10.270504
v -5.234878 1.759864 -16.458279
v -2.247111 0.012624 7.282490
v -2.552925 2.062236 -16.461456
v -5.007222 0.390275 9.524288
v -5.005542 -0.105275 -15.327205
v -2.325269 0.692643 9.521137
v -2.323588 0.197093 -15.330357
v -10.564897 67.752319 7.293299
v -2.559069 2.559888 7.587346
v -2.553735 2.127784 -13.293777
v -10.570599 67.783333 -25.791956
v -10.877086 70.293625 -27.445374
v -4.474837 -4.052626 21.817600
v -10.965015 48.883915 10.270593
v -11.099522 42.436157 -34.881748
v -11.099428 49.943806 29.442574
v -10.968022 48.753216 -26.079620
v -8.283064 49.186287 10.267411
v -8.286070 49.055588 -26.082798
v -8.283236 49.172474 7.377103
v -8.285791 49.071503 -22.229980
v -7.014972 70.164185 -113.934425
v -7.014986 70.164200 -122.691383
v -5.257234 48.535160 -36.636341
v -7.014863 70.336884 -41.930614
v -5.257343 55.930103 -109.572807
v -5.257357 55.930119 -118.533325
v 0.000058 -5.580544 -15.182876
v -0.000114 95.472351 -130.026550
v -0.000114 88.651932 -130.026566
v -0.000116 69.991402 -130.026596
v 0.000050 -4.469576 -20.409973
v 0.000048 -0.746530 -21.481049
v 0.000138 97.018158 32.273502
v 0.000137 92.566452 32.273518
v 0.000136 69.991158 32.273453
v 0.000030 42.436157 -34.881763
v -0.000085 55.930103 -109.572815
v -0.000099 55.930119 -118.533340
v 2.354397 97.018402 -130.026550
v 6.779427 95.472351 -130.026566
v 6.779452 95.472321 -114.151390
v 2.354423 97.018387 -114.151382
v 10.386745 92.566696 -130.026581
v 10.386770 92.566681 -114.151405
v 12.741252 88.651932 -130.026581
v 12.741280 88.651917 -114.151436
v 13.558964 84.200226 -130.026596
v 13.558989 84.200211 -114.151443
v 13.559187 84.200012 10.270613
v 13.559124 84.200089 -30.427876
v 13.559126 69.991249 -27.442238
v 13.559182 69.991196 7.284930
v 6.779650 95.472137 10.270642
v 6.779683 95.472092 32.273487
v 2.354655 97.018158 32.273495
v 2.354620 97.018204 10.270650
v 10.386967 92.566498 10.270627
v 10.387001 92.566452 32.273472
v 12.741475 88.651733 10.270619
v 12.741512 88.651688 32.273464
v 13.559224 84.199982 32.273457
v 4.475005 -4.469598 -15.182879
v 4.475047 -3.926955 10.270482
v 4.929250 -0.289744 7.285629
v 4.929216 -0.687867 -12.960280
v 6.779584 95.472198 -30.427849
v 2.354555 97.018265 -30.427839
v 10.386903 92.566559 -30.427856
v 12.741412 88.651794 -30.427868
v 6.779567 95.472229 -41.831150
v 2.354538 97.018295 -41.831142
v 10.386883 92.566574 -41.831161
v 12.741394 88.651810 -41.831200
v 13.559103 84.200104 -41.831207
v 13.558989 69.991379 -114.151466
v 13.559103 69.991272 -41.831226
v 13.558964 69.991402 -130.026611
v 4.475068 -4.052626 21.817608
v 4.475068 -4.052626 21.817585
v 3.137806 -4.669391 10.270482
v 3.137827 -4.795050 21.817608
v 4.474998 -4.469576 -20.409977
v 3.137757 -5.212011 -20.409977
v 3.137764 -5.212022 -15.182879
v 0.000097 -5.037902 10.270490
v 0.000115 -5.163572 21.817616
v 0.000050 -5.580534 -20.409973
v -0.000114 92.566696 -130.026550
v -0.000115 84.200226 -130.026566
v 4.929204 -0.746530 -21.481056
v 11.099584 42.436157 -34.881779
v 10.565091 67.752319 7.293269
v 10.564587 67.749527 10.267417
v 10.799072 69.657555 9.521018
v 10.877231 70.293564 7.281791
v 5.241902 2.312974 10.270489
v 10.965218 48.883915 10.270555
v 8.283266 49.186283 10.267388
v 2.559950 2.615346 10.267345
v 10.877174 70.293625 -27.445408
v 13.253339 67.484833 -29.914745
v 10.968110 48.753216 -26.079655
v 8.286159 49.055584 -26.082825
v 10.571388 67.787201 -29.917889
v 2.247298 0.012624 7.282486
v 2.247264 -0.385499 -12.963424
v 13.482675 69.364647 -29.553183
v 10.800724 69.667015 -29.556353
v 13.246536 67.447159 10.270583
v 13.481023 69.355186 9.524165
v 13.559221 69.991158 32.273438
v 5.007415 0.390275 9.524273
v 2.325463 0.692643 9.521130
v 5.234991 1.759864 -16.458294
v 5.005657 -0.105275 -15.327220
v 2.323705 0.197093 -15.330364
v 2.553038 2.062236 -16.461464
v 4.929276 -0.350439 22.340405
v 11.099689 49.943806 29.442543
v 2.559257 2.559888 7.587337
v 8.283428 49.172474 7.377076
v 10.570690 67.783333 -25.791988
v 8.285892 49.071503 -22.230007
v 2.553858 2.127784 -13.293785
v 0.000137 95.472092 32.273495
v 0.000137 88.651688 32.273510
v 0.000137 84.199982 32.273479
v 0.000115 -4.052614 21.817616
v 0.000116 -0.350439 22.340412
v 0.000130 49.943806 29.442558
v 7.014778 70.164200 -122.691414
v 7.014792 70.164185 -113.934456
v -0.000104 70.137634 -122.693459
v 7.014906 70.336884 -41.930637
v 5.257289 48.535160 -36.636356
v 5.257174 55.930103 -109.572830
v 5.257160 55.930119 -118.533340
v 0.000028 48.535160 -36.636349
v -6.625243 52.748718 -127.508362
v -6.625238 46.584755 -93.531929
v -6.625245 60.532318 -127.508369
v -6.625241 60.532314 -93.531944
v -9.424710 55.436047 -127.508377
v -9.424706 49.272079 -93.531921
v -9.424711 57.844994 -127.508369
v -9.424708 57.844990 -93.531944
v 9.424485 55.436050 -127.508377
v 9.424491 49.272083 -93.531921
v 9.424489 57.844994 -93.531944
v 9.424485 57.844997 -127.508385
v -0.000113 52.748722 -127.508362
v -0.000107 46.584755 -93.531937
v 6.625024 46.584759 -93.531921
v 6.625018 52.748722 -127.508377
v -0.000110 60.532314 -93.531944
v 6.625021 60.532314 -93.531929
v -0.000114 60.532322 -127.508385
v 6.625017 60.532322 -127.508369
v -0.000108 46.280380 -91.011856
v -0.000100 37.730030 -42.679943
v -5.050285 46.280376 -91.011871
v -5.050278 37.730030 -42.679935
v -8.700586 58.948738 -90.713432
v -8.700579 51.671589 -42.826393
v -8.700576 42.342838 -39.862423
v -8.700584 52.614555 -90.862656
v -0.000104 42.005207 -66.845894
v -5.050282 42.005207 -66.845917
v -8.700583 58.844013 -67.359383
v -8.700582 47.478699 -65.362526
v -8.700584 49.783733 -90.929337
v -8.700576 40.833717 -40.784206
v -8.700581 45.418224 -65.920944
v -0.000108 49.799057 -90.928970
v 8.700368 49.783737 -90.929344
v 8.700372 45.418228 -65.920944
v 8.700370 47.478703 -65.362526
v 8.700366 52.614559 -90.862656
v 5.050074 42.005207 -66.845901
v 5.050069 46.280380 -91.011864
v -0.000100 40.498047 -40.989231
v -0.000101 42.342838 -39.862434
v 8.700375 42.342842 -39.862423
v 8.700376 40.833717 -40.784210
v -0.000103 51.671589 -42.826382
v -0.000107 58.844009 -67.359367
v 8.700371 58.844017 -67.359383
v 8.700375 51.671593 -42.826393
v -0.000110 58.948738 -90.713448
v -0.000109 52.614559 -90.862648
v 8.700366 58.948738 -90.713432
v 5.050079 37.730026 -42.679951
v 10.719648 83.536758 -141.087891
v 10.057389 87.142166 -141.087875
v 8.150492 90.312698 -141.087875
v 5.228951 92.665955 -141.087860
v 1.645153 93.918106 -141.087860
v -2.168646 93.918106 -141.087845
v -5.752444 92.665955 -141.087845
v -8.673983 90.312698 -141.087845
v -10.580880 87.142166 -141.087845
v -11.243141 83.536758 -141.087845
v -10.580882 79.931351 -141.087860
v -8.673985 76.760818 -141.087860
v -5.752448 74.407547 -141.087875
v -2.168650 73.155411 -141.087875
v 1.645147 73.155411 -141.087891
v 5.228944 74.407547 -141.087891
v 8.150485 76.760803 -141.087891
v 10.057385 79.931351 -141.087891
v 10.719666 83.536743 -129.949570
v 10.057406 87.142136 -129.949554
v 8.150509 90.312683 -129.949554
v 5.228968 92.665939 -129.949539
v 1.645170 93.918091 -129.949539
v -2.168629 93.918091 -129.949524
v -5.752427 92.665939 -129.949524
v -8.673966 90.312683 -129.949524
v -10.580864 87.142136 -129.949524
v -11.243127 83.536743 -129.949524
v -10.580868 79.931335 -129.949539
v -8.673969 76.760803 -129.949539
v -5.752431 74.407532 -129.949554
v -2.168634 73.155396 -129.949554
v 1.645164 73.155380 -129.949570
v 5.228961 74.407532 -129.949570
v 8.150502 76.760788 -129.949570
v 10.057403 79.931320 -129.949570
v 6.486218 83.536743 -129.949554
v 6.079269 85.752228 -129.949554
v 4.907501 87.700485 -129.949554
v 3.112247 89.146530 -129.949539
v 0.910039 89.915970 -129.949539
v -1.433499 89.915970 -129.949539
v -3.635705 89.146530 -129.949539
v -5.430960 87.700485 -129.949524
v -6.602731 85.752228 -129.949539
v -7.009681 83.536743 -129.949539
v -6.602731 81.321259 -129.949539
v -5.430963 79.373001 -129.949539
v -3.635708 77.926941 -129.949554
v -1.433502 77.157516 -129.949554
v 0.910036 77.157516 -129.949554
v 3.112242 77.926941 -129.949554
v 4.907496 79.372986 -129.949554
v 6.079266 81.321243 -129.949554
v 6.486448 83.536514 21.031202
v 6.079497 85.751984 21.031210
v 4.907731 87.700256 21.031210
v 3.112475 89.146317 21.031218
v 0.910267 89.915741 21.031225
v -1.433272 89.915741 21.031225
v -3.635477 89.146317 21.031225
v -5.430731 87.700256 21.031233
v -6.602504 85.751999 21.031225
v -7.009454 83.536514 21.031225
v -6.602503 81.321030 21.031218
v -5.430734 79.372772 21.031218
v -3.635479 77.926712 21.031210
v -1.433274 77.157288 21.031202
v 0.910264 77.157272 21.031202
v 3.112470 77.926712 21.031202
v 4.907726 79.372757 21.031202
v 6.079495 81.321030 21.031202
vn -0.4848 0.8746 -0.0000
vn -0.1669 0.9860 -0.0000
vn -0.7529 0.6581 -0.0000
vn -0.9351 0.3545 -0.0000
vn -0.9350 0.3545 -0.0000
vn -0.9959 0.0907 -0.0000
vn -0.0000 1.0000 -0.0000
vn -0.9960 0.0892 -0.0015
vn -1.0000 -0.0026 -0.0026
vn -1.0000 -0.0026 0.0015
vn -0.9960 0.0892 0.0009
vn -0.7530 0.6580 -0.0000
vn -0.9350 0.3546 -0.0000
vn -0.9963 0.0856 -0.0001
vn -0.8234 -0.5674 0.0061
vn -0.8274 -0.5616 0.0027
vn -0.9926 -0.1217 0.0014
vn -0.9926 -0.1211 0.0018
vn -0.7529 0.6582 -0.0000
vn -0.9961 0.0884 -0.0002
vn -1.0000 -0.0000 -0.0000
vn -0.9995 -0.0290 0.0117
vn -0.3055 -0.9521 -0.0104
vn -0.8355 -0.5495 -0.0058
vn -0.8250 -0.5651 -0.0059
vn -0.3067 -0.9518 0.0050
vn -0.8451 -0.5346 0.0003
vn -0.3060 -0.9520 -0.0000
vn -0.3055 -0.9521 0.0101
vn -0.0000 -1.0000 0.0052
vn -0.0000 -0.9999 -0.0109
vn -0.0000 -1.0000 -0.0000
vn -0.0000 -0.9999 0.0106
vn -0.0000 -0.0000 -1.0000
vn -0.0000 -0.2872 -0.9579
vn -0.0050 -0.2769 -0.9609
vn -0.0000 -0.2864 -0.9581
vn -0.0000 -0.2127 -0.9771
vn -0.0000 -0.1402 -0.9901
vn -0.9926 -0.1217 0.0002
vn -0.9925 -0.1219 0.0002
vn -0.9925 -0.1219 -0.0000
vn -0.9926 -0.1217 -0.0000
vn -0.0012 -0.0001 -1.0000
vn -0.0218 0.1830 -0.9829
vn -0.0218 0.1831 -0.9829
vn -0.0212 0.1981 0.9800
vn 0.0005 0.0060 1.0000
vn 0.0005 0.0061 1.0000
vn -0.1112 0.9876 0.1109
vn -0.1108 0.9815 -0.1563
vn -0.1108 0.9814 -0.1567
vn -0.1112 0.9876 0.1110
vn 0.1110 -0.9834 0.1437
vn 0.0796 -0.6952 0.7144
vn 0.0792 -0.6951 0.7146
vn 0.1110 -0.9834 0.1438
vn -0.9999 -0.0102 0.0004
vn -0.9979 -0.0594 0.0242
vn 0.0197 -0.1848 -0.9826
vn 0.0842 -0.7540 -0.6514
vn 0.0846 -0.7541 -0.6513
vn 0.0197 -0.1847 -0.9826
vn 0.1108 -0.9842 -0.1381
vn 0.1108 -0.9842 -0.1380
vn -1.0000 -0.0095 0.0004
vn -0.9977 -0.0676 -0.0016
vn -0.9981 -0.0618 -0.0017
vn -0.0853 0.7467 -0.6597
vn -0.0849 0.7464 -0.6600
vn -0.0398 0.3630 0.9309
vn -0.0909 0.8121 0.5764
vn -0.0911 0.8123 0.5761
vn -0.0398 0.3631 0.9309
vn -0.9925 -0.1218 -0.0003
vn -0.9925 -0.1218 -0.0004
vn -0.9926 -0.1216 -0.0008
vn -0.9925 -0.1220 -0.0008
vn -0.9939 -0.1007 0.0459
vn -0.9928 -0.1075 0.0530
vn -0.9926 -0.1189 0.0254
vn -0.9924 -0.1180 0.0344
vn -0.9927 -0.1210 0.0005
vn -0.9925 -0.1219 0.0018
vn -0.9925 -0.1219 0.0009
vn -0.9926 -0.1217 0.0008
vn -0.9926 -0.1216 0.0018
vn -0.9925 -0.1219 0.0023
vn -0.9926 -0.1215 0.0023
vn -0.9926 -0.1213 -0.0000
vn -0.9926 -0.1211 -0.0000
vn -0.9926 -0.1211 0.0002
vn -0.9926 -0.1213 0.0002
vn -0.9927 -0.1210 0.0008
vn -0.9926 -0.1212 0.0008
vn -0.9927 -0.1208 0.0017
vn -0.9927 -0.1207 0.0023
vn -0.9926 -0.1211 0.0023
vn -0.0000 -0.0000 1.0000
vn -0.0000 -0.0673 0.9977
vn -0.0000 -0.0701 0.9975
vn -0.0000 -0.1069 0.9943
vn -0.0000 -0.1398 0.9902
vn 0.0328 -0.9995 0.0006
vn 0.0125 -0.9999 0.0112
vn 0.0127 -0.9999 0.0111
vn 0.0331 -0.9995 0.0006
vn -0.0000 -0.9998 0.0223
vn 0.0158 -0.8237 -0.5668
vn 0.0156 -0.8210 -0.5707
vn -0.0096 -0.2594 -0.9657
vn -0.9951 -0.0984 -0.0049
vn -0.9937 -0.1123 -0.0021
vn -0.9942 -0.1079 -0.0030
vn -0.9925 -0.1225 -0.0000
vn -0.0000 -0.2765 -0.9610
vn -0.0000 -0.9949 -0.1009
vn -0.0000 -0.9987 -0.0505
vn -0.0008 -0.2807 -0.9598
vn -0.0000 -0.2807 -0.9598
vn 0.1669 0.9860 -0.0000
vn 0.4848 0.8746 -0.0000
vn 0.7529 0.6581 -0.0000
vn 0.9350 0.3546 -0.0000
vn 0.9959 0.0907 -0.0000
vn 1.0000 -0.0026 0.0015
vn 1.0000 -0.0026 -0.0026
vn 0.9960 0.0892 -0.0015
vn 0.9960 0.0892 0.0009
vn 0.1669 0.9860 -0.0001
vn 0.9350 0.3545 -0.0000
vn 0.9963 0.0854 -0.0003
vn 0.8234 -0.5674 0.0061
vn 0.9926 -0.1211 0.0018
vn 0.9926 -0.1217 0.0014
vn 0.8274 -0.5616 0.0027
vn 0.7529 0.6582 -0.0000
vn 0.9351 0.3545 -0.0000
vn 0.9961 0.0884 -0.0002
vn 0.9995 -0.0287 0.0117
vn 1.0000 -0.0000 -0.0000
vn 0.3055 -0.9521 -0.0104
vn 0.3068 -0.9517 0.0050
vn 0.8250 -0.5651 -0.0059
vn 0.8355 -0.5495 -0.0057
vn 0.3055 -0.9521 0.0101
vn 0.3060 -0.9520 -0.0000
vn 0.8451 -0.5346 0.0003
vn 0.0050 -0.2769 -0.9609
vn 0.9926 -0.1217 0.0002
vn 0.9926 -0.1217 -0.0000
vn 0.9925 -0.1219 -0.0000
vn 0.9925 -0.1219 0.0002
vn 0.0217 0.1826 -0.9829
vn 0.0012 -0.0001 -1.0000
vn 0.0218 0.1831 -0.9829
vn -0.0005 0.0060 1.0000
vn 0.0212 0.1981 0.9800
vn -0.0005 0.0061 1.0000
vn 0.1112 0.9876 0.1111
vn 0.1112 0.9876 0.1108
vn 0.1108 0.9814 -0.1566
vn 0.1108 0.9815 -0.1563
vn -0.1110 -0.9834 0.1435
vn -0.1110 -0.9834 0.1438
vn -0.0797 -0.6950 0.7146
vn -0.0792 -0.6953 0.7144
vn 0.9999 -0.0102 0.0004
vn 0.9979 -0.0593 0.0241
vn -0.0197 -0.1846 -0.9826
vn -0.0197 -0.1847 -0.9826
vn -0.0843 -0.7541 -0.6513
vn -0.0845 -0.7540 -0.6514
vn -0.1108 -0.9842 -0.1379
vn -0.1108 -0.9842 -0.1381
vn 1.0000 -0.0095 0.0004
vn 0.9981 -0.0618 -0.0018
vn 0.9977 -0.0676 -0.0016
vn 0.0852 0.7464 -0.6600
vn 0.0850 0.7467 -0.6597
vn 0.0398 0.3630 0.9309
vn 0.0909 0.8123 0.5761
vn 0.0911 0.8121 0.5764
vn 0.9926 -0.1216 -0.0008
vn 0.9925 -0.1218 -0.0004
vn 0.9925 -0.1218 -0.0003
vn 0.9925 -0.1220 -0.0008
vn 0.9926 -0.1189 0.0254
vn 0.9928 -0.1074 0.0529
vn 0.9939 -0.1007 0.0459
vn 0.9924 -0.1180 0.0343
vn 0.9927 -0.1210 0.0005
vn 0.9926 -0.1217 0.0008
vn 0.9925 -0.1219 0.0009
vn 0.9925 -0.1219 0.0018
vn 0.9926 -0.1216 0.0018
vn 0.9925 -0.1219 0.0023
vn 0.9926 -0.1215 0.0023
vn 0.9926 -0.1211 0.0002
vn 0.9926 -0.1211 -0.0000
vn 0.9926 -0.1213 -0.0000
vn 0.9926 -0.1213 0.0002
vn 0.9926 -0.1212 0.0008
vn 0.9927 -0.1210 0.0007
vn 0.9926 -0.1211 0.0023
vn 0.9927 -0.1207 0.0023
vn 0.9927 -0.1208 0.0017
vn -0.0328 -0.9995 0.0006
vn -0.0331 -0.9995 0.0006
vn -0.0127 -0.9999 0.0111
vn -0.0125 -0.9999 0.0112
vn 0.0096 -0.2594 -0.9657
vn -0.0156 -0.8210 -0.5707
vn -0.0158 -0.8237 -0.5668
vn 0.9951 -0.0984 -0.0049
vn 0.9942 -0.1079 -0.0030
vn 0.9937 -0.1124 -0.0021
vn 0.9925 -0.1225 -0.0000
vn 0.0008 -0.2807 -0.9598
vn -0.0000 -0.9839 -0.1785
vn -0.6867 -0.7153 -0.1298
vn -0.6925 0.7214 -0.0000
vn 0.6867 -0.7153 -0.1298
vn 0.6925 0.7214 -0.0000
vn -0.0000 -0.9847 -0.1742
vn -0.0000 -0.5213 0.8534
vn -0.0000 0.9897 0.1431
vn -0.0000 0.9598 0.2806
vn -0.0000 0.0236 -0.9997
vn -0.0000 0.3028 0.9531
vn -0.0000 0.0235 -0.9997
vn -0.0000 1.0000 0.0045
vn -0.6914 -0.7116 -0.1250
vn -0.6896 -0.7131 -0.1267
vn -0.6894 -0.7132 -0.1268
vn -0.6876 -0.7147 -0.1284
vn 0.6914 -0.7116 -0.1250
vn 0.6894 -0.7132 -0.1268
vn 0.6896 -0.7131 -0.1267
vn 0.6876 -0.7147 -0.1284
vn 0.7530 0.6581 -0.0000
vn 0.4847 0.8747 -0.0000
vn 0.1668 0.9860 -0.0000
vn -0.7530 0.6581 -0.0000
vn -0.9351 -0.3545 -0.0000
vn -0.7529 -0.6581 -0.0000
vn -0.7530 -0.6581 -0.0000
vn -0.4847 -0.8747 -0.0000
vn -0.1669 -0.9860 -0.0000
vn -0.1668 -0.9860 -0.0000
vn 0.1669 -0.9860 -0.0000
vn 0.4848 -0.8746 -0.0000
vn 0.4847 -0.8747 -0.0000
vn 0.7529 -0.6581 -0.0000
vn 0.9350 -0.3547 -0.0000
vn 0.9350 -0.3545 -0.0000
vn 0.9835 0.1807 -0.0000
vn 0.8569 0.5154 -0.0000
vn 0.6273 0.7788 -0.0000
vn 0.3298 0.9440 -0.0000
vn -0.3298 0.9440 -0.0000
vn -0.6273 0.7788 -0.0000
vn -0.8569 0.5154 -0.0000
vn -0.9835 0.1807 -0.0000
vn -0.9835 -0.1807 -0.0000
vn -0.8569 -0.5154 -0.0000
vn -0.6273 -0.7788 -0.0000
vn -0.3298 -0.9440 -0.0000
vn 0.3298 -0.9440 -0.0000
vn 0.6273 -0.7788 -0.0000
vn 0.8569 -0.5154 -0.0000
vn 0.9835 -0.1807 -0.0000
vt 0.490717 0.401830
vt 0.507177 0.402727
vt 0.507082 0.419926
vt 0.490622 0.419030
vt 0.490811 0.384631
vt 0.507271 0.385528
vt 0.490906 0.367431
vt 0.507366 0.368328
vt 0.491000 0.350232
vt 0.507461 0.351129
vt 0.507035 0.428525
vt 0.490575 0.427629
vt 0.594272 0.355849
vt 0.597660 0.301930
vt 0.633693 0.303848
vt 0.636497 0.358126
vt 0.659044 0.411038
vt 0.658948 0.428248
vt 0.636116 0.426982
vt 0.636211 0.409770
vt 0.659141 0.393826
vt 0.636307 0.392557
vt 0.659239 0.376614
vt 0.636402 0.375342
vt 0.659336 0.359400
vt 0.658899 0.436852
vt 0.636068 0.435589
vt 0.611896 0.017933
vt 0.638353 0.020115
vt 0.635240 0.034068
vt 0.614167 0.032465
vt 0.593895 0.424666
vt 0.593990 0.407461
vt 0.594084 0.390257
vt 0.594178 0.373053
vt 0.593847 0.433267
vt 0.582069 0.424018
vt 0.582164 0.406816
vt 0.582259 0.389614
vt 0.582353 0.372413
vt 0.582448 0.355213
vt 0.582021 0.432619
vt 0.507758 0.297067
vt 0.582744 0.301153
vt 0.491297 0.296170
vt 0.650476 0.014511
vt 0.650446 0.020469
vt 0.650411 0.020476
vt 0.638375 0.014419
vt 0.606492 0.017682
vt 0.606515 0.012051
vt 0.611922 0.012299
vt 0.638422 0.002797
vt 0.650490 0.002875
vt 0.606568 0.000500
vt 0.611988 0.000763
vt 0.353702 0.553977
vt 0.350930 0.548064
vt 0.352214 0.542080
vt 0.360197 0.559135
vt 0.354630 0.530816
vt 0.366858 0.557017
vt 0.357893 0.515604
vt 0.372892 0.547891
vt 0.361620 0.498238
vt 0.377585 0.532855
vt 0.373922 0.440891
vt 0.389850 0.479119
vt 0.468553 0.028006
vt 0.447905 0.160356
vt 0.437431 0.144840
vt 0.464389 0.019159
vt 0.470447 0.016568
vt 0.466667 0.008535
vt 0.568574 0.840240
vt 0.571577 0.840726
vt 0.570828 0.848245
vt 0.568371 0.849681
vt 0.576640 0.770909
vt 0.573416 0.770271
vt 0.575302 0.592838
vt 0.578469 0.591839
vt 0.531729 0.760991
vt 0.534920 0.763080
vt 0.530811 0.836021
vt 0.527571 0.835483
vt 0.551913 0.568126
vt 0.572947 0.572406
vt 0.572381 0.582531
vt 0.552110 0.577971
vt 0.532794 0.855951
vt 0.530222 0.854248
vt 0.531038 0.843499
vt 0.533314 0.845798
vt 0.527549 0.843711
vt 0.595481 0.299441
vt 0.595138 0.292225
vt 0.574655 0.842822
vt 0.574041 0.850724
vt 0.571223 0.858530
vt 0.568670 0.859493
vt 0.636034 0.301534
vt 0.636847 0.294239
vt 0.659643 0.305279
vt 0.575656 0.574298
vt 0.574817 0.584978
vt 0.545342 0.583248
vt 0.546375 0.575032
vt 0.549515 0.579221
vt 0.548332 0.586623
vt 0.578132 0.583629
vt 0.549227 0.568852
vt 0.657144 0.228185
vt 0.637250 0.222972
vt 0.638297 0.044147
vt 0.650898 0.034686
vt 0.637567 0.036689
vt 0.599489 0.220791
vt 0.590468 0.196465
vt 0.605325 0.031866
vt 0.610473 0.041733
vt 0.611690 0.034630
vt 0.570345 0.769658
vt 0.572587 0.592104
vt 0.535117 0.836129
vt 0.539059 0.763604
vt 0.551568 0.587435
vt 0.362485 0.563099
vt 0.367621 0.568983
vt 0.359756 0.568983
vt 0.359758 0.563116
vt 0.371806 0.580053
vt 0.359753 0.580033
vt 0.374536 0.594964
vt 0.359748 0.594929
vt 0.375480 0.611916
vt 0.359743 0.611873
vt 0.375464 0.666016
vt 0.359724 0.665964
vt 0.364818 0.949982
vt 0.359622 0.949963
vt 0.359627 0.935762
vt 0.365350 0.935783
vt 0.363264 0.952803
vt 0.359620 0.954194
vt 0.372582 0.742896
vt 0.359696 0.742851
vt 0.404353 0.434964
vt 0.389167 0.434651
vt 0.400149 0.417637
vt 0.379101 0.416754
vt 0.446534 0.284364
vt 0.439855 0.277368
vt 0.438716 0.176813
vt 0.395865 0.365856
vt 0.391317 0.381017
vt 0.469759 0.012111
vt 0.467327 0.005458
vt 0.359759 0.562966
vt 0.433156 0.164769
vt 0.391935 0.356927
vt 0.388284 0.373943
vt 0.506988 0.437125
vt 0.506893 0.454323
vt 0.490433 0.453427
vt 0.490527 0.436229
vt 0.506798 0.471522
vt 0.490339 0.470625
vt 0.506704 0.488721
vt 0.490244 0.487823
vt 0.506610 0.505919
vt 0.490150 0.505021
vt 0.632231 0.566975
vt 0.596205 0.564933
vt 0.593415 0.510681
vt 0.635635 0.513047
vt 0.636020 0.444196
vt 0.658851 0.445455
vt 0.658756 0.462664
vt 0.635925 0.461408
vt 0.658660 0.479873
vt 0.635828 0.478620
vt 0.658565 0.497082
vt 0.635732 0.495832
vt 0.658471 0.514293
vt 0.607279 0.850205
vt 0.609709 0.835940
vt 0.630778 0.836669
vt 0.633732 0.850951
vt 0.593800 0.441868
vt 0.593704 0.459072
vt 0.593609 0.476276
vt 0.593512 0.493479
vt 0.581974 0.441220
vt 0.581879 0.458421
vt 0.581784 0.475622
vt 0.581688 0.492822
vt 0.581593 0.510022
vt 0.581292 0.564075
vt 0.506311 0.559977
vt 0.489852 0.559079
vt 0.645781 0.857888
vt 0.633690 0.856644
vt 0.645783 0.851921
vt 0.645817 0.851933
vt 0.607242 0.855835
vt 0.601838 0.855486
vt 0.601878 0.849860
vt 0.645664 0.869514
vt 0.633608 0.868259
vt 0.607179 0.867367
vt 0.601763 0.867030
vt 0.348152 0.542174
vt 0.344208 0.525133
vt 0.342344 0.504885
vt 0.342781 0.483854
vt 0.345458 0.464534
vt 0.356710 0.408644
vt 0.460227 0.010303
vt 0.428947 0.120046
vt 0.462889 0.000500
vt 0.497881 0.972647
vt 0.499122 0.981264
vt 0.496661 0.982633
vt 0.495122 0.976418
vt 0.464026 0.748381
vt 0.485554 0.912466
vt 0.482605 0.916622
vt 0.460950 0.750941
vt 0.532777 0.927004
vt 0.520803 0.863232
vt 0.523560 0.857752
vt 0.535751 0.922923
vt 0.483178 0.699417
vt 0.484090 0.708854
vt 0.465614 0.735504
vt 0.463955 0.726647
vt 0.533139 0.947858
vt 0.531521 0.938924
vt 0.533397 0.934258
vt 0.535358 0.943424
vt 0.536688 0.930604
vt 0.594000 0.567181
vt 0.593578 0.574354
vt 0.492473 0.981779
vt 0.493929 0.988500
vt 0.497437 0.992700
vt 0.499935 0.990784
vt 0.634545 0.569542
vt 0.658175 0.568402
vt 0.635276 0.576920
vt 0.463606 0.740484
vt 0.461629 0.731410
vt 0.491015 0.706325
vt 0.488592 0.712785
vt 0.486660 0.707160
vt 0.489133 0.699771
vt 0.460351 0.742881
vt 0.485774 0.697132
vt 0.633943 0.826938
vt 0.634887 0.648166
vt 0.654820 0.645152
vt 0.646427 0.837780
vt 0.633132 0.834307
vt 0.600870 0.835563
vt 0.587852 0.669508
vt 0.597133 0.646196
vt 0.606122 0.826273
vt 0.607259 0.833503
vt 0.488362 0.908501
vt 0.466487 0.744696
vt 0.528756 0.931859
vt 0.516987 0.868291
vt 0.485651 0.717118
vt 0.357032 0.563082
vt 0.351894 0.568933
vt 0.347701 0.579973
vt 0.344962 0.594864
vt 0.344005 0.611808
vt 0.343983 0.665906
vt 0.354427 0.949944
vt 0.353905 0.935742
vt 0.355978 0.952777
vt 0.346811 0.742805
vt 0.364304 0.349801
vt 0.370980 0.355606
vt 0.370068 0.394036
vt 0.427531 0.153029
vt 0.397479 0.187256
vt 0.392923 0.170364
vt 0.387836 0.348783
vt 0.385068 0.367728
vt 0.464459 0.000845
vt 0.544690 0.190179
vt 0.577647 0.144322
vt 0.579785 0.176260
vt 0.545291 0.199153
vt 0.540358 0.154083
vt 0.573315 0.108226
vt 0.576424 0.130374
vt 0.543467 0.176231
vt 0.582046 0.120786
vt 0.575048 0.110740
vt 0.582046 0.062423
vt 0.589043 0.072469
vt 0.582319 0.214112
vt 0.547825 0.237005
vt 0.546239 0.213312
vt 0.580733 0.190419
vt 0.582209 0.026212
vt 0.582209 0.035384
vt 0.578959 0.045616
vt 0.578959 0.015981
vt 0.571269 0.045616
vt 0.571269 0.015981
vt 0.573440 0.097186
vt 0.577741 0.067487
vt 0.534797 0.119699
vt 0.533094 0.112259
vt 0.561692 0.047363
vt 0.567754 0.073842
vt 0.537250 0.131936
vt 0.570207 0.086079
vt 0.596041 0.082515
vt 0.589043 0.130832
vt 0.554509 0.015981
vt 0.559006 0.035624
vt 0.530407 0.100520
vt 0.525910 0.080876
vt 0.563578 0.045616
vt 0.560328 0.035384
vt 0.560328 0.026212
vt 0.563578 0.015981
vt 0.597650 0.096069
vt 0.593349 0.125768
vt 0.481495 0.200047
vt 0.506477 0.172139
vt 0.507366 0.179649
vt 0.482052 0.210771
vt 0.502533 0.137268
vt 0.504441 0.154590
vt 0.480214 0.181361
vt 0.478264 0.163687
vt 0.458978 0.175836
vt 0.468270 0.188293
vt 0.467463 0.194261
vt 0.457991 0.183132
vt 0.510209 0.250979
vt 0.507060 0.221201
vt 0.531144 0.187912
vt 0.535149 0.217402
vt 0.461119 0.233493
vt 0.467301 0.258639
vt 0.461242 0.273404
vt 0.455060 0.248258
vt 0.532976 0.150534
vt 0.463558 0.141965
vt 0.472851 0.154423
vt 0.463811 0.226930
vt 0.467177 0.218728
vt 0.470765 0.233324
vt 0.470008 0.252040
vt 0.531806 0.145141
vt 0.526858 0.110789
vt 0.528784 0.128523
vt 0.485873 0.268791
vt 0.483617 0.235765
vt 0.461904 0.201310
vt 0.456511 0.194079
vt 0.473672 0.128809
vt 0.472006 0.119292
vt 0.498019 0.094541
vt 0.498793 0.102175
vt 0.476330 0.145996
vt 0.500635 0.119936
vt 0.448878 0.169346
vt 0.449685 0.163378
vt 0.515098 0.041802
vt 0.489627 0.062456
vt 0.486262 0.032915
vt 0.512463 0.010820
vt 0.448878 0.223113
vt 0.454936 0.208348
vt 0.523873 0.067633
vt 0.454266 0.129506
vt 0.457644 0.201749
vt 0.463588 0.204133
vt 0.524010 0.074151
vt 0.524893 0.093097
vt 0.468334 0.096592
vt 0.463629 0.066232
vt 0.451117 0.186848
vt 0.447733 0.440135
vt 0.450912 0.440843
vt 0.450172 0.465571
vt 0.447227 0.464785
vt 0.454129 0.441864
vt 0.453108 0.466724
vt 0.457383 0.443265
vt 0.456054 0.468441
vt 0.460669 0.445063
vt 0.459112 0.471058
vt 0.402986 0.445063
vt 0.406393 0.443406
vt 0.407892 0.470060
vt 0.404360 0.473055
vt 0.409836 0.441981
vt 0.411116 0.468227
vt 0.413210 0.440939
vt 0.414230 0.466914
vt 0.416514 0.440223
vt 0.417297 0.465929
vt 0.419752 0.439752
vt 0.420342 0.465184
vt 0.422932 0.439453
vt 0.423369 0.464624
vt 0.426065 0.439269
vt 0.426383 0.464214
vt 0.429166 0.439164
vt 0.429385 0.463932
vt 0.432245 0.439120
vt 0.432377 0.463762
vt 0.435317 0.439132
vt 0.435360 0.463700
vt 0.438391 0.439209
vt 0.438337 0.463751
vt 0.441479 0.439375
vt 0.441307 0.463929
vt 0.444591 0.439667
vt 0.444271 0.464260
vt 0.449584 0.478981
vt 0.446762 0.478531
vt 0.452346 0.479590
vt 0.455015 0.480421
vt 0.457522 0.481653
vt 0.408957 0.484085
vt 0.406305 0.486026
vt 0.411762 0.482537
vt 0.414638 0.481331
vt 0.417553 0.480381
vt 0.420486 0.479632
vt 0.423429 0.479046
vt 0.426373 0.478599
vt 0.429315 0.478272
vt 0.432252 0.478053
vt 0.435182 0.477937
vt 0.438102 0.477923
vt 0.441010 0.478013
vt 0.443899 0.478212
vt 0.452307 0.989760
vt 0.449639 0.989935
vt 0.454974 0.989593
vt 0.457642 0.989436
vt 0.460456 0.989275
vt 0.414931 0.993072
vt 0.412264 0.993377
vt 0.417599 0.992776
vt 0.420268 0.992488
vt 0.422937 0.992209
vt 0.425607 0.991940
vt 0.428278 0.991679
vt 0.430949 0.991428
vt 0.433619 0.991186
vt 0.436290 0.990954
vt 0.438961 0.990731
vt 0.441631 0.990518
vt 0.444301 0.990315
vt 0.446970 0.990120
s 1
usemtl Stock_.001
f 2/1/1 41/2/1 40/3/2 1/4/2
f 3/5/3 42/6/3 41/2/1 2/1/1
f 4/7/4 43/8/5 42/6/3 3/5/3
f 5/9/6 44/10/6 43/8/5 4/7/4
f 1/4/2 40/3/2 46/11/7 11/12/7
f 28/13/8 29/14/9 21/15/10 19/16/11
f 7/17/1 6/18/2 15/19/2 16/20/1
f 8/21/12 7/17/1 16/20/1 17/22/3
f 9/23/13 8/21/12 17/22/3 18/24/13
f 10/25/14 9/23/13 18/24/13 19/16/11
f 6/18/2 12/26/7 20/27/7 15/19/2
f 38/28/15 23/29/16 52/30/17 53/31/18
f 16/20/1 15/19/2 24/32/2 25/33/1
f 17/22/3 16/20/1 25/33/1 26/34/19
f 18/24/13 17/22/3 26/34/19 27/35/13
f 19/16/11 18/24/13 27/35/13 28/13/8
f 15/19/2 20/27/7 30/36/7 24/32/2
f 25/33/1 24/32/2 31/37/2 32/38/1
f 26/34/19 25/33/1 32/38/1 33/39/3
f 27/35/13 26/34/19 33/39/3 34/40/13
f 28/13/8 27/35/13 34/40/13 35/41/20
f 24/32/2 30/36/7 37/42/7 31/37/2
f 44/10/6 45/43/21 36/44/22 35/41/20
f 32/38/1 31/37/2 40/3/2 41/2/1
f 33/39/3 32/38/1 41/2/1 42/6/3
f 34/40/13 33/39/3 42/6/3 43/8/5
f 35/41/20 34/40/13 43/8/5 44/10/6
f 31/37/2 37/42/7 46/11/7 40/3/2
f 5/9/6 13/45/21 45/43/21 44/10/6
f 47/46/23 22/47/24 79/48/25 23/29/16 48/49/26
f 39/50/27 50/51/28 49/52/29 38/28/15
f 152/53/30 153/54/31 47/46/23 48/49/26
f 154/55/32 94/56/33 49/52/29 50/51/28
f 23/29/16 38/28/15 49/52/29 48/49/26
f 1/57/34 11/58/34 95/59/34 2/60/34
f 2/60/34 95/59/34 155/61/34 3/62/34
f 3/62/34 155/61/34 96/63/34 4/64/34
f 4/64/34 96/63/34 156/65/34 5/66/34
f 5/66/34 156/65/34 97/67/34 13/68/34
f 54/69/35 81/70/36 103/71/37 99/72/37
f 39/73/38 54/69/35 99/72/37 98/74/39
f 74/75/40 63/76/41 65/77/42 56/78/43
f 80/79/44 84/80/44 55/81/45 66/82/46
f 83/83/47 85/84/47 57/85/48 59/86/49
f 53/87/50 52/88/51 68/89/52 58/90/53
f 29/91/54 60/92/55 61/93/56 78/94/57
f 60/95/55 59/86/49 57/85/48 61/93/56
f 60/96/58 35/41/20 36/44/22 59/97/59
f 60/96/58 29/14/9 28/13/8 35/41/20
f 62/98/60 64/99/61 65/77/62 63/76/63
f 64/100/61 21/101/64 56/78/65 65/77/62
f 64/102/66 10/25/14 19/16/11 21/15/10
f 64/102/66 62/103/67 14/104/68 10/25/14
f 52/88/51 70/105/69 72/106/70 68/89/52
f 67/107/71 71/108/72 73/109/73 69/110/74
f 70/111/69 66/82/46 55/81/45 72/106/70
f 71/112/72 53/87/50 58/90/53 73/109/73
f 82/113/75 80/114/76 66/115/77 51/116/77
f 70/117/78 79/48/25 22/47/24 51/116/77 66/115/77
f 83/118/79 81/119/80 54/120/81 67/121/82
f 38/28/15 53/31/18 71/122/83 39/50/27
f 71/122/83 67/121/82 54/120/81 39/50/27
f 55/81/84 84/80/85 86/123/86 75/124/87
f 72/106/88 55/81/84 75/124/87 68/89/89
f 78/94/90 61/93/91 57/85/92 77/125/93
f 77/125/93 57/85/92 85/84/94 87/126/95
f 76/127/18 69/110/96 73/109/97 58/90/98
f 68/89/89 75/124/87 76/127/18 58/90/98
f 76/127/18 75/124/87 86/123/86 87/126/95
f 77/125/93 74/75/40 56/78/43 78/94/90
f 78/94/57 56/78/65 21/101/64 29/91/54
f 6/128/99 7/129/99 192/130/99 100/131/99
f 7/129/99 8/132/99 101/133/99 192/130/99
f 8/132/99 9/134/99 193/135/99 101/133/99
f 9/134/99 10/136/99 194/137/99 193/135/99
f 14/138/100 102/139/101 194/137/99 10/136/99
f 22/140/102 195/141/101 196/142/103 51/143/103
f 47/144/99 153/145/99 195/141/101 22/140/102
f 82/146/103 197/147/103 102/139/101 14/138/100
f 70/117/78 52/30/17 23/29/16 79/48/25
f 62/98/60 63/76/63 84/80/44 80/79/44
f 67/107/71 69/110/74 85/84/47 83/83/47
f 82/113/75 14/104/68 62/103/67 80/114/76
f 59/97/59 36/44/22 81/119/80 83/118/79
f 63/76/41 74/75/40 86/123/86 84/80/85
f 69/110/96 76/127/18 87/126/95 85/84/94
f 74/75/40 77/125/93 87/126/95 86/123/86
f 51/143/103 196/142/103 197/147/103 82/146/103
f 45/148/104 13/68/105 89/149/106 88/150/107
f 97/67/108 200/151/108 89/149/106 13/68/105
f 81/70/36 36/152/109 91/153/110 90/154/111
f 36/152/109 45/148/104 88/150/107 91/153/110
f 90/154/112 91/153/112 88/150/113 92/155/114
f 92/155/114 88/150/113 89/149/115 93/156/115
f 48/49/26 49/52/29 94/56/33 152/53/30
f 50/157/34 39/73/38 98/74/39 154/158/34
s 0
f 12/159/99 6/128/99 100/131/99
s 1
f 103/71/37 81/70/36 90/154/111 205/160/116
f 90/154/117 92/155/118 104/161/118 205/160/117
f 92/155/118 93/156/32 105/162/32 104/161/118
f 93/156/119 89/149/119 200/151/120 105/162/120
f 109/163/121 108/164/122 107/165/122 106/166/121
f 108/164/122 111/167/123 110/168/123 107/165/122
f 111/167/123 113/169/124 112/170/124 110/168/123
f 113/169/124 115/171/125 114/172/125 112/170/124
f 46/11/7 109/163/121 106/166/121 11/12/7
f 119/173/126 118/174/127 117/175/128 116/176/129
f 123/177/121 122/178/130 121/179/122 120/180/122
f 120/180/122 121/179/122 125/181/123 124/182/123
f 124/182/123 125/181/123 127/183/124 126/184/131
f 126/184/131 127/183/124 128/185/132 116/176/129
f 20/27/7 12/26/7 122/178/121 123/177/121
f 129/186/133 132/187/134 131/188/135 130/189/136
f 134/190/121 123/177/121 120/180/122 133/191/122
f 133/191/122 120/180/122 124/182/123 135/192/137
f 135/192/137 124/182/123 126/184/131 136/193/124
f 136/193/124 126/184/131 116/176/129 117/175/128
f 30/36/7 20/27/7 123/177/121 134/190/121
f 138/194/121 134/190/121 133/191/122 137/195/122
f 137/195/122 133/191/122 135/192/137 139/196/123
f 139/196/123 135/192/137 136/193/124 140/197/138
f 140/197/138 136/193/124 117/175/128 141/198/139
f 37/42/7 30/36/7 134/190/121 138/194/121
f 143/199/140 142/200/141 115/171/125 141/198/139
f 109/163/121 138/194/121 137/195/122 108/164/122
f 108/164/122 137/195/122 139/196/123 111/167/123
f 111/167/123 139/196/123 140/197/138 113/169/124
f 113/169/124 140/197/138 141/198/139 115/171/125
f 46/11/7 37/42/7 138/194/121 109/163/121
f 142/200/141 144/201/141 114/172/125 115/171/125
f 148/202/142 147/203/143 130/189/136 146/204/144 145/205/145
f 151/206/146 150/207/147 149/208/148 129/186/133
f 148/202/142 153/209/31 152/210/30 147/203/143
f 151/206/146 94/211/33 154/212/32 150/207/147
f 151/206/146 129/186/133 130/189/136 147/203/143
f 95/59/34 11/58/34 106/213/34 107/214/34
f 155/61/34 95/59/34 107/214/34 110/215/34
f 96/63/34 155/61/34 110/215/34 112/216/34
f 156/65/34 96/63/34 112/216/34 114/217/34
f 97/67/34 156/65/34 114/217/34 144/218/34
f 157/219/35 99/72/37 103/71/37 158/220/149
f 149/221/38 98/74/39 99/72/37 157/219/35
f 159/222/150 162/223/151 161/224/152 160/225/153
f 166/226/154 165/227/155 164/228/155 163/229/156
f 171/230/157 170/231/158 169/232/158 168/233/159
f 132/234/160 173/235/161 172/236/162 131/237/163
f 118/238/164 167/239/165 175/240/166 174/241/167
f 174/242/167 175/240/166 171/230/157 168/233/159
f 143/199/140 141/198/139 174/243/168 168/244/169
f 174/243/168 141/198/139 117/175/128 118/174/127
f 176/245/170 160/225/171 161/224/172 177/246/173
f 177/247/173 161/224/172 162/223/174 119/248/175
f 116/176/129 128/185/132 177/249/176 119/173/126
f 177/249/176 128/185/132 178/250/177 176/251/178
f 131/237/163 172/236/162 180/252/179 179/253/180
f 181/254/181 184/255/181 183/256/182 182/257/183
f 179/258/180 180/252/179 166/226/154 163/229/156
f 182/259/183 183/256/182 173/235/161 132/234/160
f 163/260/184 164/261/185 186/262/186 185/263/184
f 179/264/187 163/260/184 185/263/184 145/205/145 146/204/144
f 157/265/188 158/266/189 169/267/190 181/268/191
f 182/269/192 132/187/134 129/186/133 149/208/148
f 182/269/192 149/208/148 157/265/188 181/268/191
f 188/270/193 165/227/194 166/226/195 187/271/196
f 187/271/196 166/226/195 180/252/197 172/236/198
f 171/230/199 175/240/200 167/239/201 189/272/202
f 189/272/202 190/273/203 170/231/204 171/230/199
f 191/274/134 173/235/205 183/256/206 184/255/207
f 191/274/134 187/271/196 172/236/198 173/235/205
f 191/274/134 190/273/203 188/270/193 187/271/196
f 189/272/202 167/239/201 162/223/151 159/222/150
f 167/239/165 118/238/164 119/248/175 162/223/174
f 122/275/99 100/131/99 192/130/99 121/276/99
f 121/276/99 192/130/99 101/133/99 125/277/99
f 125/277/99 101/133/99 193/135/99 127/278/99
f 127/278/99 193/135/99 194/137/99 128/279/99
f 194/137/99 102/139/101 178/280/100 128/279/99
f 196/142/103 195/141/101 145/281/102 185/282/103
f 195/141/101 153/145/99 148/283/99 145/281/102
f 102/139/101 197/147/103 186/284/103 178/280/100
f 179/264/187 146/204/144 130/189/136 131/188/135
f 165/227/155 160/225/171 176/245/170 164/228/155
f 170/231/158 184/255/181 181/254/181 169/232/158
f 186/262/186 164/261/185 176/251/178 178/250/177
f 158/266/189 143/199/140 168/244/169 169/267/190
f 188/270/193 159/222/150 160/225/153 165/227/194
f 190/273/203 191/274/134 184/255/207 170/231/204
f 190/273/203 189/272/202 159/222/150 188/270/193
f 197/147/103 196/142/103 185/282/103 186/284/103
f 142/285/208 199/286/209 198/287/210 144/218/211
f 198/287/210 200/151/108 97/67/108 144/218/211
f 158/220/149 202/288/212 201/289/213 143/290/214
f 143/290/214 201/289/213 199/286/209 142/285/208
f 202/288/215 203/291/216 199/286/217 201/289/215
f 203/291/216 204/292/218 198/287/218 199/286/217
f 94/211/33 151/206/146 147/203/143 152/210/30
f 98/74/39 149/221/38 150/293/34 154/158/34
s 0
f 12/159/99 100/131/99 122/275/99
s 1
f 103/71/37 205/160/116 202/288/212 158/220/149
f 104/161/118 203/291/118 202/288/117 205/160/117
f 105/162/32 204/292/32 203/291/118 104/161/118
f 200/151/120 198/287/219 204/292/219 105/162/120
f 210/294/21 211/295/21 213/296/21 212/297/21
f 218/298/220 219/299/220 207/300/220 206/301/220
f 222/302/99 209/303/99 207/304/99 219/305/99
f 222/306/7 224/307/7 208/308/7 209/309/7
f 210/310/34 212/311/34 208/312/34 206/313/34
f 210/294/221 206/301/221 207/300/221 211/295/221
f 213/296/222 209/309/222 208/308/222 212/297/222
f 224/314/34 218/315/34 206/313/34 208/312/34
f 213/316/99 211/317/99 207/304/99 209/303/99
f 214/318/141 217/319/141 216/320/141 215/321/141
f 218/298/220 221/322/220 220/323/220 219/299/220
f 220/324/99 223/325/99 222/302/99 219/305/99
f 222/326/7 223/327/7 225/328/7 224/329/7
f 225/330/34 217/331/34 214/332/34 221/333/34
f 214/318/223 215/321/223 220/323/223 221/322/223
f 216/320/224 217/319/224 225/328/224 223/327/224
f 221/333/34 218/315/34 224/314/34 225/330/34
f 220/324/99 215/334/99 216/335/99 223/325/99
f 238/336/21 240/337/21 237/338/21 233/339/21
f 234/340/225 235/341/225 228/342/225 226/343/225
f 249/344/226 232/345/226 239/346/226 248/347/226
f 253/348/227 236/349/227 231/350/228 252/351/228
f 257/352/229 233/353/229 230/354/229 256/355/229
f 231/350/21 236/349/21 237/338/21 232/356/21
f 252/357/230 231/358/230 232/345/230 249/344/230
f 241/359/229 226/360/229 228/361/229 238/362/231
f 239/363/21 232/356/21 237/338/21 240/337/21
f 227/364/225 229/365/225 235/341/225 234/340/225
f 256/366/232 230/367/232 236/349/227 253/348/227
f 236/349/21 230/367/21 233/339/21 237/338/21
f 238/336/233 228/342/233 235/341/234 240/337/235
f 240/337/235 235/341/234 229/365/236 239/363/236
f 233/353/229 257/352/229 241/359/229 238/362/231
f 229/368/226 227/369/226 248/347/226 239/346/226
f 242/370/141 245/371/141 244/372/141 243/373/141
f 247/374/225 246/375/225 234/340/225 226/343/225
f 251/376/226 250/377/226 249/344/226 248/347/226
f 255/378/228 254/379/227 253/380/227 252/381/228
f 258/382/229 245/383/229 257/352/229 256/355/229
f 244/372/141 254/379/141 255/378/141 250/384/141
f 250/377/230 255/385/230 252/357/230 249/344/230
f 241/359/229 242/386/229 247/387/231 226/360/229
f 244/372/141 250/384/141 251/388/141 243/373/141
f 246/375/225 259/389/225 227/364/225 234/340/225
f 254/379/227 258/390/232 256/391/232 253/380/227
f 254/379/141 244/372/141 245/371/141 258/390/141
f 242/370/237 243/373/238 246/375/239 247/374/237
f 243/373/238 251/388/240 259/389/240 246/375/239
f 241/359/229 257/352/229 245/383/229 242/386/229
f 248/347/226 227/369/226 259/392/226 251/376/226
f 260/393/141 261/394/138 279/395/138 278/396/141
f 261/394/138 262/397/123 280/398/241 279/395/138
f 262/397/123 263/399/122 281/400/242 280/398/241
f 263/399/122 264/401/121 282/402/243 281/400/242
f 264/403/121 265/404/2 283/405/2 282/406/243
f 265/404/2 266/407/1 284/408/1 283/405/2
f 266/407/1 267/409/3 285/410/244 284/408/1
f 267/409/3 268/411/4 286/412/4 285/410/244
f 268/411/4 269/413/21 287/414/21 286/412/4
f 269/413/21 270/415/245 288/416/245 287/414/21
f 270/415/245 271/417/246 289/418/247 288/416/245
f 271/417/246 272/419/248 290/420/248 289/418/247
f 272/419/248 273/421/249 291/422/250 290/420/248
f 273/421/249 274/423/251 292/424/251 291/422/250
f 274/423/251 275/425/252 293/426/253 292/424/251
f 275/425/252 276/427/254 294/428/254 293/426/253
f 276/427/254 277/429/255 295/430/256 294/428/254
f 277/429/255 260/393/141 278/396/141 295/430/256
f 278/396/99 279/395/99 297/431/99 296/432/99
f 279/395/99 280/398/99 298/433/99 297/431/99
f 280/398/99 281/400/99 299/434/99 298/433/99
f 281/400/99 282/402/99 300/435/99 299/434/99
f 282/406/99 283/405/99 301/436/99 300/437/99
f 283/405/99 284/408/99 302/438/99 301/436/99
f 284/408/99 285/410/99 303/439/99 302/438/99
f 285/410/99 286/412/99 304/440/99 303/439/99
f 286/412/99 287/414/99 305/441/99 304/440/99
f 287/414/99 288/416/99 306/442/99 305/441/99
f 288/416/99 289/418/99 307/443/99 306/442/99
f 289/418/99 290/420/99 308/444/99 307/443/99
f 290/420/99 291/422/99 309/445/99 308/444/99
f 291/422/99 292/424/99 310/446/99 309/445/99
f 292/424/99 293/426/99 311/447/99 310/446/99
f 293/426/99 294/428/99 312/448/99 311/447/99
f 294/428/99 295/430/99 313/449/99 312/448/99
f 295/430/99 278/396/99 296/432/99 313/449/99
f 296/432/257 297/431/257 315/450/257 314/451/257
f 297/431/258 298/433/258 316/452/258 315/450/258
f 298/433/259 299/434/259 317/453/259 316/452/259
f 299/434/260 300/435/260 318/454/260 317/453/260
f 300/437/7 301/436/7 319/455/7 318/456/7
f 301/436/261 302/438/261 320/457/261 319/455/261
f 302/438/262 303/439/262 321/458/262 320/457/262
f 303/439/263 304/440/263 322/459/263 321/458/263
f 304/440/264 305/441/264 323/460/264 322/459/264
f 305/441/265 306/442/265 324/461/265 323/460/265
f 306/442/266 307/443/266 325/462/266 324/461/266
f 307/443/267 308/444/267 326/463/267 325/462/267
f 308/444/268 309/445/268 327/464/268 326/463/268
f 309/445/32 310/446/32 328/465/32 327/464/32
f 310/446/269 311/447/269 329/466/269 328/465/269
f 311/447/270 312/448/270 330/467/270 329/466/270
f 312/448/271 313/449/271 331/468/271 330/467/271
f 313/449/272 296/432/272 314/451/272 331/468/272
